<?xml version="1.0" encoding="utf-8"?>
<!-- Generator: Adobe Illustrator 25.4.1, SVG Export Plug-In . SVG Version: 6.00 Build 0)  -->
<svg version="1.1" id="Layer_1" xmlns="http://www.w3.org/2000/svg" xmlns:xlink="http://www.w3.org/1999/xlink" x="0px" y="0px"
	 viewBox="0 0 1000 1000" style="enable-background:new 0 0 1000 1000;" xml:space="preserve">
<style type="text/css">
	.st0{display:none;opacity:0.3;fill:#606060;}
	.st1{fill:#6D5A2C;}
	.st2{fill:#F4C257;}
	.st3{fill:#BA9545;}
	.st4{fill:#FFFFFF;}
	.st5{display:none;}
	.st6{display:inline;}
	.st7{display:inline;fill:#FFFFFF;}
</style>
<rect x="144.7" y="157" class="st0" width="685" height="686"/>
<g>
	<path class="st1" d="M538.2,365.2c2.9,0,5.8,0.5,8.5,1.5c4.5,1.7,9,4.6,11.1,9c2.9,1.3,6.1,2.9,7.6,5.8c1.5,3,0.9,7-0.1,10.1
		c1.9,1.5,3.9,2.8,5.8,4.3c2.7,2.1,6.4,5.1,6.6,8.8c0.1,1.8-0.5,3.2-1.6,4.6c1.8,7.9,0.2,18.4-3.1,25.7c-1.4,3.1-3.2,5.2-6.4,6.4
		c1.1,4.1,2.4,8.8,0.3,12.8c-1,2-2.8,3.5-5,4.1c-2.9,0.8-5.2,0.1-7.7-1.2c0.6,6.1,2.9,11,4.9,16.7c3.9,11.1,3.5,23.2,1.1,34.6
		c6,3.7,16.4,4.9,23.4,5.8c2.5,0.3,5.2,0.5,7.6,1.3c5.6,1.8,9.1,7.5,14.8,9.1c3.2,0.9,6.7,0.4,9.9,0.9c3.9,0.6,7.4,2.7,9.7,5.9
		c2.6,3.5,3.1,7.3,2.5,11.6c6.2,0.3,13.2,0.3,19.1,2.4c-8.7,4-76,3.5-91,3.6c-49.6,0.3-99.1,0.3-148.7-0.1
		c-17.7-0.2-35.5-0.1-53.2-1c-6.4-0.3-13.2-0.4-19.5-1.6c-0.6-0.1-1.2-0.3-1.6-0.9l0.3-0.3c6.1-2.6,22.6-2.3,30.1-2.8
		c-7.1-2.3-13.6-6.6-17.9-12.8c-4.6-6.4-6.4-14.4-5.1-22.2c0.9-5.4,3.4-9.9,7.9-13.1c-2,4.3-3.1,8.4-2.7,13.2
		c0.6,6.5,3.8,12.3,8.8,16.5c5.2,4.3,12.3,6.3,19,5.6c6.6-0.6,12-3.7,16.2-8.8c-0.5-6.4-0.3-12.7,1.4-19
		c3.1-11.5,10.1-20.7,20.4-26.6c7.5-4.3,15-6.5,23.5-4.3c4.6-2,9.3-3.2,14-4.5c10.5-3,22.3-7.9,29.9-15.9
		c4.8-5.1,8.5-11.4,11.9-17.5c-1.2-2.2-2.6-5.2-2.4-7.8c0.2-2.5,4-10.8,5.1-14c1.2-3.5,2.2-7.2,3-10.9c0.6-2.9,1-5.9,1.8-8.7
		c1.6-5.8,4.3-9.2,9.5-12.2c1.5-2.7,2.6-5.3,4.6-7.7c3.5-4.1,8.7-6.6,14.1-6.6c1.7,0,3.4,0.6,5.2,0.7
		C533.7,366.1,536.1,365.3,538.2,365.2z"/>
	<path class="st2" d="M492.7,436.1c0.7,0.9,1.3,1.9,1.9,3c-0.7,1.1-1.3,2.2-1.8,3.3c-2.2,5.3-1.5,11.5,0.7,16.7
		c4.3,10.1,17.1,19.4,27,23.4c-5.3-5.7-10.5-11.8-14.7-18.4c2.8,2.3,5.9,4.2,8.9,6.1c11.3,7.1,16.2,10,23.8,21.5
		c-1.9-6.3-4.5-11.6-8.6-16.7c-3.7-4.7-7.7-9-10.4-14.4c2.5,1.6,4.7,3.7,7,5.5c3.7,2.8,7.5,5.3,10.9,8.5c-3.1-7.4-8.8-13.4-11-21.2
		c1.4-3.3,1.9-6.5,2.4-10c2.6,2.1,4.7,2.6,7.9,3.1c0.4,3.3,0.9,6.6,1.7,9.9c0.9,3.3,2.1,6.5,2.9,9.9c0.3-5.8,1.6-11.7,2.6-17.4
		c2.7-0.9,4.7-2.9,7.3-3.8c-1.2,12.9-3.1,20.7-7,33c3.4-5.2,5.5-10,7.4-15.9c0.7,2.3,1.3,4.5,1.8,6.9c2,3.7,3.5,7.8,4.3,11.9
		c1.5,7.6,1.2,19.2-1.1,26.6c-0.2,0.7-0.5,1.4-0.8,2.1c1.8,1.2,3.6,2.3,5.7,3.2c5.7,2.3,14.7,3.5,20.8,4.3c2.3,0.3,4.7,0.3,6.9,0.9
		c5.3,1.4,8.6,6.9,13.8,8.9c5.4,2.1,11.8,0.1,16.9,3.2c2.6,1.6,4.4,4.3,5,7.3c0.2,0.8,0.3,1.5,0.3,2.4c-0.1,1.3-0.4,2-1.4,2.8
		c-0.6,0.5-1,0.7-1.7,0.7c-1.3-1-0.6-3.2-1.1-4.6c-0.8-2.5-2.1-4.6-3.6-6.7l-2.2-1.1c1.1,1.1,2.1,2.1,2.6,3.7
		c0.3,0.6,0.5,1.3,0.6,1.9c0.2,1.6,0.6,4.7-0.5,6c-1.1,1.1-4,0.7-5.5,0.6c0-1.1,0-2.1-0.2-3.2c-0.5-2.9-2-6-4.5-7.6
		c-0.6-0.4-1.5-0.9-2.2-0.8l-0.1,0.5c0.6,0.6,1.3,1.1,1.9,1.7c0,0,0.1,0,0.1,0.1c1.8,1.8,2.5,5,2.3,7.5c0,0.8-0.1,1.1-0.7,1.6
		c-1.4,0.5-3.4,0.2-4.9,0.1c-9.8-0.9-10-7.4-16.2-12.7c-2.2-1.9-4.7-2.9-7.4-3.9c1.5-0.9,2.9-1.9,4.2-2.9c-9.7-4-21.6-1.4-30.4-8.1
		c-0.8,0.3-1.8,0.9-2.6,1c-0.4,0-0.4-0.2-0.7-0.4c-0.2-0.9,0-1.9,0.2-2.8c-1.6,1.1-3.1,2.2-4.8,3.1c3.2-7.5,5.6-15.9,4.2-24.1
		c-1.4,2.4-3.4,5-4.5,7.5c-0.1,0.4-0.1,0.8-0.3,1.2c-2,6.1-8.2,12.9-13.8,15.7c-2.2-8.3-2.8-12.9-6.8-20.9c-1.3-1.9-2.6-3.7-4.3-5.3
		c3.6,6.5,6,13.9,3.9,21.4c-0.5,1.7-1.4,4.2-2.9,5.1c-1.4,0.8-4.1,0.2-5.7,0.1c0.6,0.7,1.3,0.8,2.3,1c5.7,0.6,11.3,1.2,17,1.6
		c4.8,0.3,10,0.2,14.7,1.1c3.4,0.6,6.5,2.9,9.5,4.5c2.1,1.1,4.3,2,6.5,2.8c6.7,2.4,16.5-0.4,21.5,5.6c1.4,1.7,2.2,3.7,2.8,5.9
		c0.2,1.1,0.4,2.4,0.1,3.5c-0.2,0.8-0.6,1.8-1.3,2.2l-0.5-0.1c-1.4-1.6-1.5-5.1-2.1-7.2c-1-2.8-3.1-4.6-5.6-6
		c1.5,1.9,2.7,3.5,3.4,5.8c0.5,1.3,0.8,2.9,0.9,4.3c0.1,0.9-0.3,1.9-1,2.6c-1.6,1.5-4.8,1-6.8,0.9c0.5-2.6,0.5-5-0.7-7.5
		c-1.1-2.3-2.6-4.1-5.1-4.9c-0.7-0.2-1.3-0.3-1.9,0l0.2,0.3c0.8,0.3,1.4,0.7,2.1,1.2c0.2,0.2,0.5,0.4,0.7,0.7c1.4,1.7,2.6,6,2.1,8.2
		c-0.2,0.8-0.5,1.3-1.2,1.6c-2,1.1-7,0.2-9.1-0.5c-2.5-0.9-3.8-2.2-4.9-4.5c-2.1,0.2-4.2,0.4-6.2,0c-2.7-0.6-4.4-2.3-5.8-4.6
		c0.5-0.2,1.1-0.4,1.6-0.6l0.1-0.2c-2.9,0-8.5,1.7-11.7,2.3c-11.3,2.3-22.7,4.6-34.2,5.7c-3.1,0.3-6.3,0.6-9.4,0.4
		c-2.3-0.2-3.6-0.7-5.1-2.5c-5.5-6.8-3.2-20.3-2.4-28.5c0.9,6.4,0.9,14.6,3.1,20.5c0.8,2.1,1.8,3.7,3.9,4.7c8,3.6,39.8-2.1,48.4-5.3
		c-8.4,0.4-37.2,2.3-43.4-1.1c-1.3-0.7-2.1-2.1-2.7-3.4c-4.1-9.9,2.4-23.3,3.2-33.4c0.3-3.1-0.2-5.8-1.1-8.8c4.1,2,8.4,3.3,12.8,4.7
		c-7.4-5.6-15.7-9.7-20.9-17.7c-4.2-6.6-4.4-13.9-2.8-21.4c-4,5-8.6,9.7-11.8,15.3c-6.5,11.1-5.9,23.9-2.7,35.9
		c-1.8-2.2-3.3-4.7-4.4-7.4c-3.9-9.6-3-18.8,0.9-28.2l-4.7,2.1c-6.5,2.9-17.1,6.5-24.2,5.6c-1.3-0.2-2.4-0.6-3.6-1.1
		c3.7-0.7,7.4-1.7,11-2.8c13.3-3.8,27.1-9.3,36-20.4C487.4,445.6,490.2,440.7,492.7,436.1z"/>
	<path class="st3" d="M553.6,469.1c2,3.7,3.5,7.8,4.3,11.9c1.5,7.6,1.2,19.2-1.1,26.6c-0.2,0.7-0.5,1.4-0.8,2.1
		c1.8,1.2,3.6,2.3,5.7,3.2c5.7,2.3,14.7,3.5,20.8,4.3c2.3,0.3,4.7,0.3,6.9,0.9c5.3,1.4,8.6,6.9,13.8,8.9c5.4,2.1,11.8,0.1,16.9,3.2
		c2.6,1.6,4.4,4.3,5,7.3c0.2,0.8,0.3,1.5,0.3,2.4c-0.1,1.3-0.4,2-1.4,2.8c-0.6,0.5-1,0.7-1.7,0.7c-1.3-1-0.6-3.2-1.1-4.6
		c-0.8-2.5-2.1-4.6-3.6-6.7l-2.2-1.1c1.1,1.1,2.1,2.1,2.6,3.7c0.3,0.6,0.5,1.3,0.6,1.9c0.2,1.6,0.6,4.7-0.5,6
		c-1.1,1.1-4,0.7-5.5,0.6c0-1.1,0-2.1-0.2-3.2c-0.5-2.9-2-6-4.5-7.6c-0.6-0.4-1.5-0.9-2.2-0.8l-0.1,0.5c0.6,0.6,1.3,1.1,1.9,1.7
		c0,0,0.1,0,0.1,0.1c1.8,1.8,2.5,5,2.3,7.5c0,0.8-0.1,1.1-0.7,1.6c-1.4,0.5-3.4,0.2-4.9,0.1c-9.8-0.9-10-7.4-16.2-12.7
		c-2.2-1.9-4.7-2.9-7.4-3.9c1.5-0.9,2.9-1.9,4.2-2.9c-9.7-4-21.6-1.4-30.4-8.1c-0.8,0.3-1.8,0.9-2.6,1c-0.4,0-0.4-0.2-0.7-0.4
		c-0.2-0.9,0-1.9,0.2-2.8c-1.6,1.1-3.1,2.2-4.8,3.1c3.2-7.5,5.6-15.9,4.2-24.1c-1.4,2.4-3.4,5-4.5,7.5c-0.1,0.4-0.1,0.8-0.3,1.2
		c-2,6.1-8.2,12.9-13.8,15.7c-2.2-8.3-2.8-12.9-6.8-20.9c-1.3-1.9-2.6-3.7-4.3-5.3c3.6,6.5,6,13.9,3.9,21.4
		c-0.5,1.7-1.4,4.2-2.9,5.1c-1.4,0.8-4.1,0.2-5.7,0.1c-1.9-1.1-9.4-0.8-11.9-0.7c3.8-1,12.1-2.2,14.7-5.1c1.6-1.8,1.8-5.6,1.7-8
		c-0.6-12.8-8.6-17.5-17.1-25.2c3.5,1.2,6.7,3,9.9,4.9c4,2.3,7.8,4.7,11.7,7.2c4.7,3.2,9.4,6.7,14.5,9.2c0.3-0.2,0.5-0.4,0.8-0.6
		c6-4.9,10.6-15.7,12.3-23C553.3,473.4,553.4,471.3,553.6,469.1z"/>
	<path class="st2" d="M555.2,482.1c1.4,11.1,0.1,19-3.1,29.6l2.6-1.3c0.8,2.6,2.6,4.7,5,6c6.7,3.5,21.3,3.3,29,4.6
		c6,4.7,8,6.4,15.2,9.7c3.7-0.4,8.1-0.9,11.2,1.6c0.9,0.8,1.8,1.6,2.7,2.4l0.3-0.1c0.3,0.6,0.5,1.3,0.6,1.9c0.2,1.6,0.6,4.7-0.5,6
		c-1.1,1.1-4,0.7-5.5,0.6c0-1.1,0-2.1-0.2-3.2c-0.5-2.9-2-6-4.5-7.6c-0.6-0.4-1.5-0.9-2.2-0.8l-0.1,0.5c0.6,0.6,1.3,1.1,1.9,1.7
		c0,0,0.1,0,0.1,0.1c1.8,1.8,2.5,5,2.3,7.5c0,0.8-0.1,1.1-0.7,1.6c-1.4,0.5-3.4,0.2-4.9,0.1c-9.8-0.9-10-7.4-16.2-12.7
		c-2.2-1.9-4.7-2.9-7.4-3.9c1.5-0.9,2.9-1.9,4.2-2.9c-9.7-4-21.6-1.4-30.4-8.1c-0.8,0.3-1.8,0.9-2.6,1c-0.4,0-0.4-0.2-0.7-0.4
		c-0.2-0.9,0-1.9,0.2-2.8c-1.6,1.1-3.1,2.2-4.8,3.1c3.2-7.5,5.6-15.9,4.2-24.1C552.7,488.8,554.3,485.7,555.2,482.1z"/>
	<path class="st3" d="M607.4,533.8l-0.3,0.1c-1.5-0.3-3.1-0.5-4.5-1l0-0.2c1-0.2,1.9-0.4,2.9-0.6
		C606.2,532.6,606.8,533.2,607.4,533.8z"/>
	<path class="st2" d="M525.4,495.6c0.1,0.1,0.1,0.1,0.2,0.2c3.4,2.9,7.5,11.1,12.5,10.7c3.4-0.2,6.2-4.5,8.2-6.9
		c-0.1,0.4-0.1,0.8-0.3,1.2c-2,6.1-8.2,12.9-13.8,15.7C530,508.2,529.4,503.6,525.4,495.6z"/>
	<path class="st2" d="M617.6,532c3.9,1.7,5.4,4.6,7.8,7.8c-0.1,1.3-0.4,2-1.4,2.8c-0.6,0.5-1,0.7-1.7,0.7c-1.3-1-0.6-3.2-1.1-4.6
		C620.5,536.2,619.1,534.1,617.6,532z"/>
	<path class="st3" d="M584.6,537.6l-0.2,0.1c-0.4-0.3-0.3-0.1-0.6-0.5c-1.5-1.8-3.6-4-5.8-4.9c-3.9-1.6-8.2-0.5-12.2-1.7
		c-2.7-0.8-5.4-1.7-8-2.9c-3.3-1.5-7.3-4-10.9-4.6c-2.7-0.4-5.7-0.1-8.4-0.2c-4-0.2-30.7-1.3-33-3.1c0-0.1,0.1-0.1,0.1-0.2
		c2.1-2.2,10.1-2,13-2c5.7,0.6,11.3,1.2,17,1.6c4.8,0.3,10,0.2,14.7,1.1c3.4,0.6,6.5,2.9,9.5,4.5c2.1,1.1,4.3,2,6.5,2.8
		c6.7,2.4,16.5-0.4,21.5,5.6c1.4,1.7,2.2,3.7,2.8,5.9c0.2,1.1,0.4,2.4,0.1,3.5c-0.2,0.8-0.6,1.8-1.3,2.2l-0.5-0.1
		c-1.4-1.6-1.5-5.1-2.1-7.2c-1-2.8-3.1-4.6-5.6-6C582.6,533.7,583.9,535.3,584.6,537.6z"/>
	<path class="st2" d="M586.8,537.8c0.7-0.1,1-0.1,1.5,0.4c0.6,0.5,1.2,1.3,1.8,1.9l0.3,0l0.2-0.7c0.2,1.1,0.4,2.4,0.1,3.5
		c-0.2,0.8-0.6,1.8-1.3,2.2l-0.5-0.1C587.5,543.3,587.4,539.9,586.8,537.8z"/>
	<path class="st3" d="M570.2,533.3c0.8,0.3,1.4,0.7,2.1,1.2c-0.3,0.2-6.7,0.4-8,0.7C566.3,534.2,568.1,533.6,570.2,533.3z"/>
	<path class="st2" d="M516.7,372.2c4-3.1,8-4.5,13.1-3.9c1.5,0.2,2.9,0.5,4.3,0.9c4.2-1.7,8.8-1.2,12.9,0.6c2.5,1.1,6.8,4,7.9,6.5
		c0.4,0.9-1,0.9,0.6,1.7c2.3,1.1,4.2,1.6,6.1,3.4c0.8,0.5,1.1,1.3,1.3,2.2c0.4,1.4,0.8,3.9-0.1,5.3c-0.3,0.5-0.7,0.7-1.3,0.8
		c-1.5-1.1,0.3-2.4-0.2-3.7c-0.7-1.9-4-4.4-5.8-5.2c-0.1,0-0.1-0.1-0.2-0.1c1.2,2.9,1.2,6.2,2.3,9.1c5.4,3.7,11.1,7.3,15.5,12.1
		c-3.6-0.7-7.6-1.5-11.2-0.4c-0.1,0.1-0.1,0.1-0.2,0.2c-1.4,1.3-3.4,2.1-3.6,4.3c-0.1,1.4,0.5,2.8,1.4,3.8c0.8,0.9,1.9,1.6,3.1,1.7
		c0.9,0,1.7-0.3,2.3-1c0.3-0.3,0.6-0.6,0.8-1l0.2,0.1c0.1,0.7,0.1,1.1-0.2,1.8c-0.5,0.5-1,0.7-1.8,0.7c-1,0-3-0.6-3.8-0.2
		c0,1,1.3,2.1,2,2.8c1.5,1.5,2.9,1.9,4.1,3c0.3,0.3,0.4,0.5,0.4,0.9c-0.1,3.3-8.5,11.4-11.2,13.6c-2.1,1.8-4.7,2.9-7.5,2.6
		c-2.1-0.2-4-1.3-5.3-3c-1.8-2.3-1.7-5.2-3-7.6c0.3,3.4,0.4,7.7,3.2,10.1c1.8,1.7,4.2,1.9,6.5,2.3c-2.9,0.9-5.6,1.6-8.4,0.1
		c-4.5-2.4-6.6-9.8-7.8-14.4c-0.7-2.7-1.2-5.5-1.9-8.2c0.1,3.1,0.6,6.1,1.2,9.2c0.4,2,1,4.1,1.2,6.2c0.3,2.8-1.4,8.7,0.6,10.7
		c1.1,1.1,2.9,1.1,4.3,1c1.4-0.1,2.8-0.3,4.2-0.6c-1.8,1.7-4.5,2.9-7,2.8c-1.7-0.1-3.7-0.8-4.9-2.1c-1.3-1.5-1.7-3.8-1.5-5.7
		c0.3-2.6,1.4-5.1,1.2-7.8c-0.2-2.8-1.5-5.7-2.4-8.3c-2.4-7.1-1.6-14.6,0.8-21.6c1.4,0.9,2.7,2,4.5,1.6c1.4-0.2,2.5-1.3,3.5-2.2
		c-1.2,0.2-2.3,0.4-3.5,0.5c-3.1-1.8-5.8-4.7-6.7-8.2l-0.1-0.2c0.8-3.9,2.8-7.1,6.1-9.4c0.9-0.6,1.8-1.1,2.8-1.4
		c1-0.4,4.2-0.7,4.6-1.5c-3.3-0.5-7.5,1.5-10.1,3.5c-3.3,2.5-5.3,5.8-5.9,9.9c-0.2,1.3-0.2,2.5-0.2,3.8c-1.7-4.9-2.6-9.8-0.2-14.7
		c0.7-1.4,1.6-2.6,2.4-3.9c-4.3,3.4-7.3,8.8-7.9,14.3c-1.5,12.4,5.7,18.9,8.1,30c-7.2-9.2-12.8-20.1-11.3-32.2
		c0.2-2,0.7-3.9,1.2-5.9c-3.9,7.2-4.6,14.8-2.3,22.6c0.9,2.9,2,5.8,3.4,8.5c2.3,4.8,6.8,11.3,7.2,16.6c1.5,7.8,0.2,18.7-4.3,25.5
		c-1.6,2.4-4,4.4-6.9,4.9c-0.8,0.1-1.7,0.1-2.5,0.1c-0.8-0.3-1.6-0.7-2.3-1.1c-2.7-1.7-3.9-4.3-4.6-7.3c0.3,0.4,0.7,0.9,1.1,1.3
		c1.3,1.5,3.2,3.4,5.3,3.4c0.8,0,1.5-0.3,2-0.8c2-1.9,2.7-5.3,3.1-7.9c1.3-7.9,0.6-16.4-1.5-24.1c-1.7-6.3-4-12.6-5.1-19
		c-1.1-6.3-0.8-12-0.4-18.4c-1.6,1.6-2.7,3.3-3.5,5.5c-2.3,5.6-2.8,11.9-4.6,17.7c-1.8,5.8-4.7,11.4-6.2,17.3c0,0.1,0,0.1,0.1,0.2
		l0.1,0.4c1.8,5.6,6.2,10.1,8.3,15.6c-3.9-2.6-10-12.4-11.3-16.9c1.3-5,4-9.6,5.5-14.7c0.9-3,1.7-6.1,2.3-9.2
		c0.8-3.8,1.3-7.6,2.6-11.2c0.8-2.3,2-4.7,3.8-6.4c2.5-2.5,6.5-3.2,9.6-5.1c0.5-0.7,1.8-1.4,2.5-2.1c-2.2,1-4.5,1.9-6.8,2.8
		C512.4,377.1,514,373.9,516.7,372.2z"/>
	<path class="st2" d="M516.7,372.2c4-3.1,8-4.5,13.1-3.9c1.5,0.2,2.9,0.5,4.3,0.9c4.2-1.7,8.8-1.2,12.9,0.6c2.5,1.1,6.8,4,7.9,6.5
		c0.4,0.9-1,0.9,0.6,1.7c2.3,1.1,4.2,1.6,6.1,3.4c0.8,0.5,1.1,1.3,1.3,2.2c0.4,1.4,0.8,3.9-0.1,5.3c-0.3,0.5-0.7,0.7-1.3,0.8
		c-1.5-1.1,0.3-2.4-0.2-3.7c-0.7-1.9-4-4.4-5.8-5.2c-0.1,0-0.1-0.1-0.2-0.1c1.2,2.9,1.2,6.2,2.3,9.1c-2.3-1.1-4.5-3-7-3.7
		c0.3,0.7,0.7,1.5,0.6,2.2c-1.5-0.7-3.8-7.9-4.9-9.8c-0.8-1.5-1.8-2.7-3.1-3.9c-0.1-0.5-0.2-0.6-0.5-0.9c-0.4,0-0.2,0-0.6-0.1
		c-1.9-0.6-3.8-0.9-5.6-1.4c-4.6-1.3-9.1-3-13.9-2c-2,0.4-3.8,1.7-5.7,2.1C516.9,372.2,516.8,372.2,516.7,372.2z"/>
	<path class="st3" d="M516.7,372.2c4-3.1,8-4.5,13.1-3.9c1.5,0.2,2.9,0.5,4.3,0.9c4.2-1.7,8.8-1.2,12.9,0.6c2.5,1.1,6.8,4,7.9,6.5
		c0.4,0.9-1,0.9,0.6,1.7c2.3,1.1,4.2,1.6,6.1,3.4c-2.4,0-2.9-2.2-6.8-1.3c0,0,0-0.1-0.1-0.1c-0.8-1.7-1.7-2.8-3-4.2
		c-3.4-3.6-7.5-5.8-12.5-5.9c-0.6-0.1-1-0.3-1.5,0c1.7,1.3,3.7,2,5,3.8c-0.4,0-0.2,0-0.6-0.1c-1.9-0.6-3.8-0.9-5.6-1.4
		c-4.6-1.3-9.1-3-13.9-2c-2,0.4-3.8,1.7-5.7,2.1C516.9,372.2,516.8,372.2,516.7,372.2z"/>
	<path class="st1" d="M542.9,373.5c-1.4-1.7-3.3-2.5-5-3.8c0.5-0.2,1,0,1.5,0c4.9,2.4,8.1,6.1,9.9,11.2c0.5,1.6,0.9,3.4,1.6,4.9
		c0.3,0.7,0.7,1.5,0.6,2.2c-1.5-0.7-3.8-7.9-4.9-9.8c-0.8-1.5-1.8-2.7-3.1-3.9C543.3,374,543.2,373.9,542.9,373.5z"/>
	<path class="st3" d="M535.3,374.7c2.8-1,5.2-1.2,8.1-0.2c1.3,1.2,2.3,2.4,3.1,3.9c1,1.8,3.3,9,4.9,9.8c0.1-0.8-0.3-1.5-0.6-2.2
		c2.5,0.7,4.7,2.6,7,3.7c5.4,3.7,11.1,7.3,15.5,12.1c-3.6-0.7-7.6-1.5-11.2-0.4l0-0.2c0.4-0.7,1.4-1.1,2.1-1.5
		c-4.1-0.1-7.3,1.1-11,2.5c3.8-2.5,7.1-4,11.6-4.5c-3.8-2.5-8-3.8-12-5.8c-2.1-1.1-4.1-2.5-6.1-3.9c0-3.3-0.2-6.2-2.3-8.9
		C542,376.1,538.9,375.1,535.3,374.7z"/>
	<path class="st3" d="M524.8,429.4c1.5,7.8,0.2,18.7-4.3,25.5c-1.6,2.4-4,4.4-6.9,4.9c-0.8,0.1-1.7,0.1-2.5,0.1
		c1.4-1.4,3.3-2.2,4.6-3.7c4.7-5.2,7.5-13.8,8.4-20.6C524.4,433.7,524,431.1,524.8,429.4z"/>
	<path class="st3" d="M515.4,379.1c-0.2,0.9-0.7,1.5-1.5,2c-1.3,0.9-6.5,3-8,3.1C508.3,381.6,512.3,380.9,515.4,379.1z"/>
	<path class="st1" d="M540.4,381.6l0.3,0.4c0.1,4.8,2.6,7.8,4.7,11.8l0.1,0.3c-2.2,4.3-3.1,9.5-4.2,14.2c-0.2-2.8,0.1-5.7,0.1-8.6
		c0-2.7-0.1-5.5-0.6-8.2c-1.2,0.7-2.6,1.4-4,1.6c-3,0.6-3.9-1.2-6.2-2.5c-0.3-0.2-0.6-0.3-0.8-0.5c0-0.1,0-0.2,0-0.2
		C530.5,388,538.4,382.4,540.4,381.6z"/>
	<path class="st4" d="M536.8,386.6c0.8,0.2,1.5,0.4,2.2,0.7c0.4,0.6,0.4,0.6,0.3,1.2c-0.8,1.2-1.9,1.5-3.2,2c-0.3,0-0.6-0.1-0.9-0.1
		c-0.8-0.2-1.9-0.5-2.4-1.2l0.1-0.5C534.1,387.8,535.6,387.3,536.8,386.6z"/>
	<path class="st1" d="M513.7,412.1c1.8,1.8,7.3,15.5,8.1,18.6c-1.2-0.9-5.4-10.5-6.1-12.4C515,416.2,514.3,414.2,513.7,412.1z"/>
	<path class="st2" d="M420.8,474.6c4-1.4,8.8-2.1,12.8-0.1c2.4,1.2,3.9,3.2,4.7,5.7c2.5,7.7-0.7,18-4.3,24.9c-2.7,5-6,9.1-10.1,12.9
		c-4.6,5.3-14.9,9.7-20.8,14.5c5.2-2,10.4-3.7,16-4.2c6.1-0.9,14.9-1.9,20.2,2c1.4,1.1,2.4,2.4,3.1,4c0.1,0.2,0.2,0.3,0.3,0.6
		c0.6,1.4,0.8,3.4,0.1,4.8c-0.4,1-1.3,1.4-2.2,1.8c-0.6-0.1-0.7-0.5-0.7-1.1c-0.2-1-0.1-2.1-0.2-3.2c-0.3-2.7-1.9-4.7-3.8-6.5
		l-1.9-0.7c0.7,1.1,1.5,2.2,2.1,3.4c0.6,0.8,0.8,1.8,0.9,2.8c0.1,1.5,0,3.7-1.1,4.8c-1.1,1.2-3.3,1.1-4.8,1.2c0.3-1,0.6-2,0.6-3.1
		c0-2.5-0.9-4.9-2.7-6.7c-2.1-2.1-4.4-2.3-7.2-2.2c1.6,0.5,3.7,1,4.9,2.2c1.4,1.4,2.1,3.7,2.1,5.7c0,1-0.2,2.1-1.1,2.8
		c-1.8,1.6-9.3,0.3-11.9,0.1c2.9-2,5.8-3.8,8.8-5.5c-7.4,1.1-14.8,2.6-22.2,1.2c-1.2-0.2-3-0.7-3.6-1.9c-0.3-0.6-0.3-1.3-0.1-1.9
		c0.8-2.9,7.7-9.1,10.1-11.6c6.4-7,12.4-15,14.8-24.3c-3,5.2-9.3,15.9-14.8,18.1c-0.7,0.3-1.2,0.3-1.9,0c-0.5-0.5-0.7-1-0.8-1.7
		c-0.7-6.1,6.7-19.2,10.5-23.8c-4,2.7-8.2,5.3-12.8,6.8c-1.3,0.4-3.5,1.1-4.7,0.3c-0.3-0.2-0.5-0.5-0.6-0.9
		c-0.3-1.3,0.5-2.9,1.1-3.9c3.8-6.4,9.5-10.9,15.8-14.4C417,476.2,418.9,475.1,420.8,474.6z"/>
	<path class="st3" d="M420.8,474.6c4-1.4,8.8-2.1,12.8-0.1c2.4,1.2,3.9,3.2,4.7,5.7c2.5,7.7-0.7,18-4.3,24.9c-2.7,5-6,9.1-10.1,12.9
		c0.8-1.7,2.1-3.3,3.1-4.9c1.9-3,3.4-6.2,4.6-9.5c2.2-6.4,4.3-15.6,1.1-22c-0.9-1.8-2.4-3.2-4.4-3.9c-5.5-1.7-13,2.5-17.7,5
		C413.8,479.2,417.9,477.5,420.8,474.6z"/>
	<path class="st3" d="M419,528.3c6.1-0.9,14.9-1.9,20.2,2c1.4,1.1,2.4,2.4,3.1,4c0.1,0.2,0.2,0.3,0.3,0.6c0.6,1.4,0.8,3.4,0.1,4.8
		c-0.4,1-1.3,1.4-2.2,1.8c-0.6-0.1-0.7-0.5-0.7-1.1c-0.2-1-0.1-2.1-0.2-3.2c-0.3-2.7-1.9-4.7-3.8-6.5l-1.9-0.7
		c0.7,1.1,1.5,2.2,2.1,3.4l-0.3,0.2C429,526.7,421.7,530,419,528.3z"/>
	<path class="st2" d="M435.7,530.7c1.6,0.4,3.2,1.2,4.5,2.2c0.3,0.2,1.4,1.5,1.7,1.5c0.1,0,0.3-0.1,0.4-0.1c0.1,0.2,0.2,0.3,0.3,0.6
		c0.6,1.4,0.8,3.4,0.1,4.8c-0.4,1-1.3,1.4-2.2,1.8c-0.6-0.1-0.7-0.5-0.7-1.1c-0.2-1-0.1-2.1-0.2-3.2
		C439.2,534.5,437.6,532.5,435.7,530.7z"/>
	<path class="st2" d="M345.8,519.2c1.7,1.4,3,3.7,4.5,5.3c5.1,5.3,12.8,8.3,20.1,8.4c7.7,0.1,14.7-2.6,20.2-7.9
		c0.4,1.2,0.8,2.4,1.3,3.6c-3.6,3.2-7.6,5.4-12.2,6.7c-7.8,2.2-15.7,1-22.7-3C352,529.4,347.3,524.8,345.8,519.2z"/>
	<path class="st2" d="M441.2,516.1c1.1,0.6,2.3,1.9,3.2,2.8c2,1.8,4,3.6,6.2,5.2c6.2,4.5,13.5,7.8,20.8,10.1
		c2.6,0.8,5.2,1.4,7.7,2.2l0.2,0.1c-5.3,0.5-11.1-0.6-16.1-2.3C454,531,445.5,525,441.2,516.1z"/>
	<path class="st2" d="M574,410.3c0.4,8-0.6,16.7-4.1,24c0,0,0,0.1,0,0.1c-0.4,1.3-1.2,2.6-2.5,3.2c-1,0.5-1.9,0.7-3,0.3
		c-0.4-0.5-0.4-0.5-0.4-1.1c0.9-1,2.3-1.5,3.2-2.6c4.4-5.1,0.9-9.6,0.6-15.2c0-0.2,0-0.7,0.2-0.8c1.1-1.1,3-1.5,4.9-3.6
		C573.3,413.1,573.7,411.7,574,410.3z"/>
	<path class="st3" d="M574,410.3c0.4,8-0.6,16.7-4.1,24c-0.5-1.4,2-8.6,2.4-10.6c0.6-3,0.6-6.2,0.6-9.2
		C573.3,413.1,573.7,411.7,574,410.3z"/>
	<path class="st3" d="M564.4,402c2.5-0.2,7.9-0.2,9.9,1.6c0.5,0.5,0.6,0.9,0.7,1.6l-0.2,0.2c-1.1-0.4-2.1-0.8-3.2-1.1
		c-4.8-0.6-4.8,0.1-9.1,1.1c-0.6,0.1-0.7,0.3-1.3-0.1c-0.2-0.6-0.2-0.9-0.1-1.5C562.1,402.8,563.2,402.4,564.4,402z"/>
	<path class="st2" d="M563.2,441.4c0.1,0.1,0.2,0.1,0.2,0.2c1.4,1.6,1.9,7.5,1.5,9.6c-0.4,2.1-1.1,3.2-2.8,4.5l-1.3,0.2l-0.3-0.2
		C563.3,451.3,563.2,446.3,563.2,441.4z"/>
	<path class="st4" d="M558.7,385.5c0.8,0.2,1.4,0.4,1.9,1.1c0.3,0.8,0.1,1.3-0.1,2.1c-0.5-0.2-0.9-0.4-1.2-0.8
		C558.7,387.2,558.7,386.4,558.7,385.5z"/>
	<g>
		<g>
			<path class="st2" d="M483.7,436.9c-0.5,0.1-0.2,0.1-0.8,0.1c-0.6-1.2-0.7-2.9-0.9-4.2c-4.7,0-9.4,0.1-14.2,0.2
				c-2.7-6.2-7.3-15.6-8.9-21.7c-1.1-1.2-1.8-2.2-3.4-2.5c-0.1,0-0.1,0-0.2,0c0.4-0.2,0.7-0.3,1.1-0.3c1.1,0,2,0.9,2.7,1.6l-0.3-3.1
				c-0.9-0.7-1.7-1.3-2.8-1.8c-9.3,0.8-18.5,1.5-27.7,2.8c-22.7,3.3-56.9,11.5-71.4,30.9c0.8-2.3,1.9-4,3.5-5.8
				c3-3.3,6.8-6,10.6-8.5c23.5-15.1,57.9-20.6,85.3-21.9c0.8,1.1,1.6,1.8,2.7,2.6c0-3.2,0-6.4-0.1-9.5c-0.8-0.5-1.5-1-2.3-1.6
				c-3.2,0.3-6.4,0.2-9.6,0.4c-4.4-8.4-7.9-17.7-11.5-26.5c-1.2-0.5-2.4-0.8-3.4-1.6c0-0.1,0-0.2,0-0.4c0.1-2-2.5-3.9-3.8-5.3
				c-20.7,4.2-41.2,10.2-57.7,23.9c-3.9,3.3-7.6,6.8-10.6,11c-2.4,3.4-4.6,7.3-5.2,11.5c-0.7,4.9,1.5,9.8,1.6,14.7
				c0,3.6,0.5,9.4-0.3,12.7c-0.6,2.5-2.3,4.6-2.5,7.3c-0.1,0.9-0.1,1.8,0,2.8c0.3,3.1,1.3,6.1,1.7,9.2c0.3,2.8-0.1,5.8,0.4,8.5
				l0.2,0.1c2.4-2.1,0.3-8,1.2-10.9l0.4-0.2c0.8,1,0.5,6.9,0.5,8.7c0.6-0.5,1.3-1.1,1.9-1.6c0.3-3.9,0-7.8,0.3-11.7
				c-0.1-1.7-0.4-4.3,0.8-5.6c0.1-0.1,0.1-0.1,0.2-0.2c0.5,0,0.4-0.1,0.7,0.3c0.9,1.1,0.7,3,0.7,4.3c-0.8,0.3-1.6,0.5-2.2,1.1l2-0.3
				c0.5,3.3,0.1,6.9,0.2,10.3l2.7-1.6c-0.1-3.7-0.2-7.4-0.2-11.1l0.5-0.5c-0.3-2.1-0.9-4.9,0.6-6.7c0.4-0.5,0.7-0.5,1.2-0.6
				c1.3,1.3,1,4.2,1.1,5.8l0.2,10.8l3.6-1.7c0-2.6-0.1-5.3,0-7.9c0-1.1,0.3-2.2,0.3-3.3c0-1.5-0.4-3-0.1-4.5
				c0.3-1.4,0.8-2.7,1.8-3.7c0.2-0.3,0.5-0.4,0.8-0.5c0.6,0.1,0.7,0.1,1.1,0.6c1.6,2.2,1.1,14.2,1.2,17.3l4.7-1.7
				c0-2-0.6-9.8,0-11.1c0.1-0.2,0.3-0.3,0.4-0.4c0.1-0.1,0.3-0.3,0.4-0.4c-0.3-0.6-0.6-0.2-0.8-0.6c-0.5-0.6,0.3-4.1,0.5-4.8
				c0.4-1.2,1.1-2.4,2.3-3c0.5-0.3,1.2-0.4,1.8-0.2c0.9,0.3,1.4,1.2,1.7,2c0.3,0.8,0.6,1.9,0.3,2.7l-0.7,0.7
				c0.4,0.3,0.6,0.3,0.6,0.8c0.5,3.9,0.2,8.3,0.2,12.2l5.4-1.5c0-2-0.4-11.3,0.2-12.3l0.9-0.1c-0.1-0.4-0.2-0.4-0.5-0.7
				c-0.6-0.6-0.8-1.3-0.8-2.1c0.1-1.8,1.1-3.9,2.4-5c0.8-0.7,2.1-1.5,3.2-1.3c0.9,0.2,1.6,0.9,1.9,1.6c1.6,3,1,14,1,18l6.2-1.1
				c0-4.2-0.5-8.6-0.1-12.8c0.5-0.3,0.6-0.2,1.2-0.3l0-0.4c-0.5-0.4-1.2-0.6-1.3-1.3c-0.3-2,0.9-4.7,2.3-6.1
				c1.2-1.1,2.7-1.7,4.3-1.6c1.3,0.1,2.4,0.8,3.1,1.8c0.8,1.1,1.1,2.4,1,3.7l-0.6,0.7c0.2,0.3,0.4,0.5,0.6,0.7
				c0.4,4.5,0.2,9.3,0.2,13.8c2.2-0.3,4.4-0.5,6.6-0.8c0-3.3-0.4-10.4,0.1-13.3c0.5-0.2,0.8-0.1,1.3-0.1l0.1-0.3
				c-0.5-0.4-1-0.8-1.5-1.1c0.3-2.5,0.8-5.1,2.8-6.7c1.3-1,3.4-1.9,5.1-1.6c1.3,0.2,2.3,1,3,2.1c2.3,3.5,1.4,15.4,1.6,20
				c2.2-0.1,4.4-0.3,6.6-0.5c-0.1-3.1-0.6-11.7,0-14.1l0.3-0.1l1,0.5l0.2-0.2c-0.1-0.6-0.1-0.7-0.7-1.1c-0.3-0.2-0.6-0.3-0.9-0.4
				c0.2-1.9,0.2-4.5,1.9-5.7c0.7-0.5,2-1,2.9-0.7c1,0.2,1.7,0.9,2.2,1.8c1.6,3,0.7,15.8,0.9,20.1c6.2,0,12.6-0.3,18.8,0.1l-0.4,0.1
				c-3.2,0.4-6.4,0.5-9.6,0.7c-4.2,0.2-8.4,0.5-12.6,0.9c-25.5,1.9-52.5,4.3-76.2,14.6c-5.7,2.5-13.8,6.8-17.7,11.9
				c-1.7,2.3-2.2,4.9-1.7,7.7c0.3,1.7,0.8,3.4,1,5.1c0.1,0.8,0.1,1.7,0.3,2.5c1,2.2,0.1,7.6,0.4,10.3l0.3,0.1c0.4-0.2,0.8-0.4,1-0.7
				c1-1.2,0.3-10.3,0.2-12.5c0-1.1,0-2.2,0.5-3.3l0.3-0.1c0.6,1.2,0.4,2.7,0.4,4c-0.5,1.9-0.1,7.4-0.1,9.7c0,0.6,0,0.9,0.4,1.3
				l1-0.3c0.1-0.1,0.3-0.2,0.4-0.4c0.5-1.1,0.1-11.3,0.1-13.4c0-1.3,0-2.5,0.8-3.6l0.5-0.2c0.6,0.4,0.9,0.7,1.1,1.4
				c0.3,0.9,0.2,2.1,0.2,3c0,4.1,0,8.1,0.1,12.2l2.6-0.7l-0.1-13.3c0-0.8-0.1-1.7,0-2.5c0.1-1.1,0.6-1.8,1.4-2.4
				c0.6-0.1,0.8-0.2,1.3,0.3c1.1,1,0.8,3.1,0.7,4.4c-0.4,4.1-0.2,8.4-0.2,12.6l3.7-0.6l0-15.7c0.2-1.2,0.4-2.7,1.5-3.5
				c0.5-0.4,1-0.6,1.6-0.5c0.8,0.1,1.4,0.8,1.8,1.5c0.5,1,0.4,2.6,0.3,3.7c-0.2,4.5,0,9.1,0,13.5l4.7-0.8l-0.2-13.6
				c0-1.2-0.1-2.6,0.3-3.8c0.5-1.3,1.5-2.5,2.7-3.1c0.7-0.3,1.4-0.3,2.1,0c1,0.5,1.5,1.6,1.7,2.7c0,5.5,0,11.1,0,16.6
				c1.7-0.2,3.4-0.4,5.2-0.5c0-1.6,0.5-14.2,0.1-15c-0.1-1.6,0.3-3.2,1.5-4.4c0.9-1,2.4-1.8,3.8-1.8c1,0,1.8,0.3,2.5,1
				c1.1,1.2,0.9,2.7,0.9,4.2c0.7-0.2,1.5-0.3,2.2-0.4c-0.7,0.1-1.5,0.3-2.2,0.4c-0.5,3.2,0,6.9,0.1,10.1c1.9-1.4,3.9-2.7,6-3.9
				c0-2.4,0-4.8,0-7.2c-0.1-1.8,0.2-3.1,1.4-4.4c1.1-1.2,2.7-2.1,4.4-2.1c1.3,0,2.5,0.4,3.4,1.4c2,2.1,1.7,4.7,1.6,7.3
				c2-0.6,5-1,6.8-2.1c0.4-0.2,0.1-4.2,1.7-5.9c1.3-1.4,3.1-2.2,5-2.3c1.6-0.1,3.2,0.4,4.4,1.5c1.7,1.8,1.5,4.2,1.5,6.5
				c2.4-0.9,4.7-1.6,7.2-2.3c0.1-0.9,0.2-1.8,0.5-2.7c0.7-1.8,2.2-3.2,3.9-4c1.5-0.6,3.3-0.7,4.8,0c1.6,0.8,2.5,2,3.2,3.7
				c6.9-3.3,13.9-7.5,19-13.2c-10.5-0.1-21,0.6-31.4,1.3c-22.5,1.5-67.9,6.1-86.4,18.9c-1.9,1.3-3.3,2.7-4.8,4.5
				c0.8-1.6,1.6-3,2.9-4.3c3.8-3.9,9.9-6.5,14.9-8.5c9.9-3.9,20.3-6.3,30.8-8.2c25.1-4.6,50.4-5.8,75.8-6c1.6-1.6,3.7-4.1,4.4-6.2
				C483.9,437.1,483.9,437.4,483.7,436.9z M363.1,418.3c-0.2,0.8-0.6,1-1.2,1.4c-0.1-1.5-0.1-3-0.1-4.5c0-1.6,0-2.9,1.3-4.1
				C363.6,413,363.5,416.4,363.1,418.3z M369.2,413.6l-1.6,1.3l-0.2,0c-0.7-1.3-0.4-5.1-0.2-6.7c0.1-1.5,0.3-1.9,1.5-2.8l0.1,0
				C369.5,406.2,369.2,412.3,369.2,413.6z M377.6,407.7l-2.3,1.4l-0.2-0.1c-0.8-1.2-0.4-6.6-0.4-8.2l2.2-1.2c0,0,0.1,0,0.1,0.1
				C377.8,400.4,377.6,406.3,377.6,407.7z M388,402.9l-3.2,1.5l-0.3-0.1c-0.8-1.3-0.3-7.2-0.3-8.9c1.1-0.5,2.1-0.9,3.2-1.4
				c0,0,0,0,0,0C388.2,395,388,401.3,388,402.9z M400.5,398l-4.2,1.4c-0.6-2.9-0.3-6.6-0.3-9.6c1.4-0.4,2.8-0.8,4.2-1.3
				C400.8,389.7,400.5,396.4,400.5,398z M415.9,394c-1.6,0.3-3.1,0.7-4.7,1.1l-0.3,0c-0.7-1.2-0.3-7.8-0.3-9.7l4.6-1l0.3,0
				C416.3,385.5,415.9,392.2,415.9,394z M361.3,402.7c14.2-20.6,42.2-29.8,65.5-34.4c0.4,0.2,0.6,0.4,0.9,0.7
				c-0.2,0.5-0.4,0.5-0.9,0.7c-1.7,0.6-3.6,0.7-5.3,1.1c-2.5,0.5-4.9,1.1-7.3,1.8c-20.6,5.8-40.4,14.8-53.8,32l-0.2,0.2
				C360,404.3,360.9,403.2,361.3,402.7z M391,468.1c-0.3,0-0.6,0.1-0.9,0.1C390.4,468.2,390.7,468.2,391,468.1z"/>
			<path class="st2" d="M458.9,411.2C458.9,411.2,458.9,411.2,458.9,411.2C458.9,411.2,458.9,411.2,458.9,411.2L458.9,411.2z"/>
			<path class="st2" d="M354.9,498.3c0.1,2.9,0.3,5.8,0.3,8.6c0,2.5-0.2,5.1,0,7.6c0,0.3,0.1,0.5,0.3,0.8c0.5,0.2,0.6,0.3,1.2,0.2
				c0.8-2.5-0.8-12.8,0.8-13.8l0.4,0.2c0.4,2.5-0.3,13.3,0.5,14.3c0.6,0.1,0.7,0.1,1.3-0.2c1.9-3.3-1.1-13.1,1.8-15.3
				c0.4,0,0.5-0.1,0.7,0.2c2.1,2.4-0.5,14.3,1.1,16c0.8,0,1.5,0.2,2.1-0.3c0.4-3.4-1.1-14,1.2-15.9c0.3-0.3,0.5-0.3,0.9-0.3
				c0.8,0.5,1.1,1,1.3,1.8c0.7,3,0.2,11.6,0.1,15c1.2,0.1,2.3,0.2,3.5,0.2c0-3.1-0.9-15.3,1.4-17.2c0.5-0.4,1-0.6,1.6-0.5
				c0.7,0.1,1.3,0.6,1.7,1.1c1.2,2.2,0.6,13.6,0.6,16.8l4.7,0c0.1-3.6-0.3-12.1,0.3-15.2c0.2-1,0.6-1.9,1.3-2.6
				c0.7-0.7,1.6-1.1,2.6-1.1c0.6,0,1.2,0.1,1.9,0.3c0.8-2.2,1.7-4.3,2.6-6.5c-0.8,0-1.6,0-2.4,0.1
				C380.7,493.4,361.4,495.1,354.9,498.3z"/>
			<path class="st2" d="M393.8,485.1c-6.8,0.6-35.3,4.2-39.3,8.9c-0.6,0.7-0.6,1.5-0.5,2.4c0,0.3,0.1,0.5,0.2,0.8l0.3,0.2l0.6-0.2
				c10.2-4.3,25.2-4.8,36.3-6.5c1.1-1.7,2.5-3.5,3.4-5.3l-0.2-0.3L393.8,485.1z"/>
		</g>
	</g>
	<g>
		<path class="st2" d="M565.5,465.4c0.8-0.8,1.8-1.4,3-1.4c1.3,0,2.5,0.6,3.4,1.6c1.7,1.8,1.8,3.9,1.7,6.2l0,0l0,0l0,0l0,0
			c0,4.5,0.1,9.1,0.2,13.6c1.7,0.1,3.3,0.2,5,0.4c-0.1-5.2-0.1-10.3,0-15.5c0,0.2-0.1,0.4-0.1,0.7c0.1-0.2,0.1-0.5,0.1-0.7
			c0.2-1.3,0.4-2.6,1.4-3.5c0.7-0.6,1.6-0.8,2.5-0.7c1.2,0.2,2.3,0.9,3,1.9c0.8,1.1,1.2,2.7,1.1,4c0,0,0,0,0,0
			c0.3,4.8,0,9.7,0.1,14.5l4.4,0.4c0-4.2-0.1-8.4,0.1-12.5l0,0c0-1.9-0.2-4.1,1.2-5.6c0.4-0.4,1-0.7,1.6-0.8c1,0,1.9,0.6,2.5,1.4
			c1.6,1.9,1.5,4.2,1.5,6.5c0,4,0,7.9,0,11.9c1.2,0.1,2.4,0.2,3.6,0.4c0.1-3.9,0-7.9,0.2-11.8c0.1-1.9-0.1-4.7,1.4-6
			c0.4-0.3,0.6-0.3,1-0.4c0.9,0.2,1.4,0.6,1.9,1.4c1.3,2,1.1,4.4,1.1,6.6l0,11.1l3.3,0.6c0-3.7,0-7.4,0-11.1c0-1.8-0.3-4.6,1.1-6
			c0.3-0.3,0.5-0.3,0.9-0.4c0.9,0.3,1.3,0.8,1.7,1.6c0.9,1.9,0.8,4.4,0.7,6.4c-0.3,2.4-0.9,8.8,0.7,10.6c0.1,0.2,0.2,0.2,0.4,0.3
			c0.5-0.1,0.5-0.1,0.8-0.6c1-1.7,0.5-7.7,0.4-9.8c0-1.5-0.3-4.8,1-5.9c0.1-0.1,0.1-0.1,0.2-0.1c0.6,0.2,0.8,0.3,1.1,0.9
			c0.9,1.8,0.7,4.3,0.8,6.3c0,1.5-0.3,9.4,0.2,10.1c0.6,0.1,1.2,0.3,1.8,0.1c0.5-4.1,0.1-10.4,0.1-14.7c0,0,0,0,0,0l0.2-0.8l0.3-0.2
			c0.6,0.5,0.7,1.5,0.9,2.2c0.1,1,0.1,2,0.1,3c-0.1,2.4-0.3,7.6-0.1,9.8c0.1,0.7,0.3,1.3,0.8,1.8l0.3,0c0.9-2.7-0.5-6.6,0.4-9.4
			c0.7-4.1,0.8-18.2,0.1-22.2c-0.2-1.3-0.6-2.4-1.3-3.5c-6.6-10.4-37.9-16.9-49.7-19.4c-1.2,1.3-2.4,2.6-4,3.5
			c0.4,1.8,0.7,3.5,0.8,5.3c0.2,3.7-0.4,7.7-3,10.5c-2.6,2.8-6,3.5-9.6,3.5c1.7,4.2,3.1,8.5,5,12.7c0-0.2,0-0.4-0.1-0.6
			C563.6,471.3,563.6,467.4,565.5,465.4z M624.4,483.7c-0.2-0.2-0.2-0.4-0.3-0.7C624.2,483.3,624.3,483.5,624.4,483.7z M622.3,482.8
			c-0.3-0.1-0.6-0.3-0.9-0.4C621.7,482.5,622,482.7,622.3,482.8z M609.8,454.7c0.7,0.1,1.2,0.2,1.7,0.7c1,2,0.5,5.4,0.5,7.6
			c-0.7-0.2-1.3-0.3-1.8-0.7C609.1,460.2,609.8,456.9,609.8,454.7z M593.9,450.4l4.5,1.1c0,3.8,0,7.5,0,11.3
			c-1.4-0.4-2.9-0.5-4.3-0.8C593.7,458.2,593.9,454.2,593.9,450.4z M588.9,473.9c-0.2,0-0.3-0.1-0.4-0.1
			C588.6,473.8,588.7,473.9,588.9,473.9z M590.4,474.2c-0.2,0-0.4-0.1-0.6-0.1C590,474.1,590.2,474.1,590.4,474.2z M587.8,473.6
			c0.1,0.1,0.2,0.1,0.4,0.1C588.1,473.7,588,473.6,587.8,473.6z M587.6,473.5L587.6,473.5c-0.3-0.2-0.4-0.3-0.5-0.5
			C587.1,473.1,587.3,473.3,587.6,473.5z M584.7,446.9l0,7.8c-1.8-0.1-3.5-0.5-5.2-0.8l0-7.9C581.2,446.2,582.9,446.6,584.7,446.9z
			 M575.3,471.9c0.4,0,0.9,0.1,1.3,0.1C576.2,472,575.8,471.9,575.3,471.9z M578.3,471.6c0.1,0,0.1-0.1,0.2-0.2
			c0-0.1,0.1-0.2,0.1-0.3c0,0.1-0.1,0.2-0.1,0.3C578.4,471.5,578.4,471.6,578.3,471.6c-0.2,0.1-0.5,0.2-0.7,0.3
			c-0.2,0-0.4,0.1-0.6,0.1c0.2,0,0.4,0,0.6-0.1C577.8,471.9,578.1,471.8,578.3,471.6z M574.8,471.8c-0.1,0-0.2,0-0.3,0
			C574.5,471.8,574.6,471.8,574.8,471.8z"/>
		<path class="st2" d="M626.1,497.4c-0.1-0.6-0.6-1-1.1-1.3c-6.8-4.2-49-8.3-59-8.3c-0.1,4.5-0.3,9-1,13.4c1-1.3,1.9-2.4,3.6-2.7
			c1.1-0.2,2.6,0.1,3.5,0.8c1.1,0.8,1.5,2.2,1.7,3.5c0.2,1.9,0,4.1-0.1,6c1.8,0.3,3.6,0.5,5.4,0.8c-0.1-2.7-0.8-7.9,1.3-9.9
			c0.6-0.6,1.5-0.9,2.4-0.9c1,0,1.9,0.3,2.6,1.1c2.2,2.3,1.4,8.2,1.4,11.3l4.5,0.5c0-3-0.8-9.1,1.3-11.4c0.5-0.5,1-0.7,1.7-0.8
			c1-0.1,2.2,0.5,2.8,1.2c1.9,2.1,1,12,1.2,15.3l3.4,1.5c0-3.4-0.8-14.3,1.5-16.5c0.4-0.4,0.9-0.6,1.5-0.6c0.7,0,1.2,0.3,1.7,0.8
			c1.8,2,1.1,13.2,1.2,16.4l3.6,0c-0.2-4.9-0.7-10.5,0.1-15.4c0.5-0.5,0.8-0.8,1.6-1c0.6,0.2,0.9,0.3,1.3,0.9c1.4,2.2,0.8,12,0.8,15
			c0.8,0,2,0.1,2.6-0.3c1.1-3.8-1.2-11.4,0.8-14.7c0.5-0.3,0.5-0.3,1.1-0.1c2.2,3-0.4,13.3,1.7,14.7c0.6-0.2,0.8-0.3,1.1-0.9
			c1.1-2.2-0.6-9.3,0.7-12.7l0.5-0.1l-0.2-0.3l0,0c1.8,2.8,0,10.7,1.1,13l0.7-0.1c0.6-1,0.3-3.3,0.3-4.6c-0.1-2.4-0.1-4.9,0.1-7.3
			C625.7,501.9,626.4,499.4,626.1,497.4z"/>
	</g>
</g>
<g>
	<g>
		<path class="st1" d="M144.7,638.2v-58h10.1v47.9h39v10.1H144.7z"/>
		<path class="st1" d="M253,580.2h9.9v32.4c0,17.9-8.9,26.4-31.4,26.4c-22.3,0-31.3-8.5-31.3-26.4v-32.4h10.5v32.4
			c0,11.6,5.2,16.4,21.1,16.4s21.1-4.8,21.1-16.4V580.2z"/>
		<path class="st1" d="M272,638.2v-58h33.6c16.4,0,28.2,11.6,28.2,28.4c0,16.8-11.9,29.6-28.2,29.6H272z M305.6,628.1
			c10.5,0,18.1-8.1,18.1-19c0-10.9-7.7-18.7-18.1-18.7h-23.5v37.7H305.6z"/>
		<path class="st1" d="M394,580.2h9.9v32.4c0,17.9-8.9,26.4-31.4,26.4c-22.3,0-31.3-8.5-31.3-26.4v-32.4h10.5v32.4
			c0,11.6,5.2,16.4,21.1,16.4c16,0,21.1-4.8,21.1-16.4V580.2z"/>
		<path class="st1" d="M413.1,638.2v-10.1h43.5c5.4,0,8.5-3,8.5-7.6c0-4.9-3-7.5-8.5-7.5h-26.6c-10.9,0-17.7-6.9-17.7-16.5
			c0-9.3,6.3-16.3,17.9-16.3h41.6v10.1h-41.6c-4.6,0-7.3,2.7-7.3,7.1c0,4.4,2.8,7,7.3,7h26.6c11.7,0,18,5.5,18,16.8
			c0,9.7-5.9,17-18,17H413.1z"/>
		<path class="st1" d="M483.3,638.4v-58.2h10.1v58.2H483.3z M529.9,638.4v-25.2h-29.2v-9h29.2v-24h10.1v58.2H529.9z"/>
		<path class="st1" d="M576.6,638.2c-16.2,0-28.2-12.8-28.2-29.6c0-17.1,12-28.4,28.2-28.4h14.1c16.8,0,28.4,11.6,28.4,28.4
			c0,16.8-11.9,29.6-28.4,29.6H576.6z M590.7,628.1c10.7,0,18.3-8.1,18.3-19c0-10.9-7.6-18.7-18.3-18.7h-14.1
			c-10.4,0-18,7.7-18,18.7c0,10.9,7.6,19,18,19H590.7z"/>
		<path class="st1" d="M679.2,580.2h9.9v32.4c0,17.9-8.9,26.4-31.4,26.4c-22.3,0-31.3-8.5-31.3-26.4v-32.4h10.5v32.4
			c0,11.6,5.2,16.4,21.1,16.4s21.1-4.8,21.1-16.4V580.2z"/>
		<path class="st1" d="M707.7,595.8v42.4H698v-52.7c0-3.7,2-6.1,5.2-6.1c1.5,0,2.8,0.6,4.3,2.1l40.9,40.6v-42.4h9.7v53.1
			c0,3.8-2.1,6.1-5,6.1c-1.7,0-3.2-0.7-4.6-2.2L707.7,595.8z"/>
		<path class="st1" d="M767.9,638.2v-58h33.6c16.4,0,28.2,11.6,28.2,28.4c0,16.8-11.9,29.6-28.2,29.6H767.9z M801.5,628.1
			c10.5,0,18.1-8.1,18.1-19c0-10.9-7.7-18.7-18.1-18.7H778v37.7H801.5z"/>
	</g>
</g>
<g class="st5">
	<path class="st6" d="M538.2,372.2c2.9,0,5.8,0.5,8.5,1.5c4.5,1.7,9,4.6,11.1,9c2.9,1.3,6.1,2.9,7.6,5.8c1.5,3,0.9,7-0.1,10.1
		c1.9,1.5,3.9,2.8,5.8,4.3c2.7,2.1,6.4,5.1,6.6,8.8c0.1,1.8-0.5,3.2-1.6,4.6c1.8,7.9,0.2,18.4-3.1,25.7c-1.4,3.1-3.2,5.2-6.4,6.4
		c1.1,4.1,2.4,8.8,0.3,12.8c-1,2-2.8,3.5-5,4.1c-2.9,0.8-5.2,0.1-7.7-1.2c0.6,6.1,2.9,11,4.9,16.7c3.9,11.1,3.5,23.2,1.1,34.6
		c6,3.7,16.4,4.9,23.4,5.8c2.5,0.3,5.2,0.5,7.6,1.3c5.6,1.8,9.1,7.5,14.8,9.1c3.2,0.9,6.7,0.4,9.9,0.9c3.9,0.6,7.4,2.7,9.7,5.9
		c2.6,3.5,3.1,7.3,2.5,11.6c6.2,0.3,13.2,0.3,19.1,2.4c-8.7,4-76,3.5-91,3.6c-49.6,0.3-99.1,0.3-148.7-0.1
		c-17.7-0.2-35.5-0.1-53.2-1c-6.4-0.3-13.2-0.4-19.5-1.6c-0.6-0.1-1.2-0.3-1.6-0.9l0.3-0.3c6.1-2.6,22.6-2.3,30.1-2.8
		c-7.1-2.3-13.6-6.6-17.9-12.8c-4.6-6.4-6.4-14.4-5.1-22.2c0.9-5.4,3.4-9.9,7.9-13.1c-2,4.3-3.1,8.4-2.7,13.2
		c0.6,6.5,3.8,12.3,8.8,16.5c5.2,4.3,12.3,6.3,19,5.6c6.6-0.6,12-3.7,16.2-8.8c-0.5-6.4-0.3-12.7,1.4-19
		c3.1-11.5,10.1-20.7,20.4-26.6c7.5-4.3,15-6.5,23.5-4.3c4.6-2,9.3-3.2,14-4.5c10.5-3,22.3-7.9,29.9-15.9
		c4.8-5.1,8.5-11.4,11.9-17.5c-1.2-2.2-2.6-5.2-2.4-7.8c0.2-2.5,4-10.8,5.1-14c1.2-3.5,2.2-7.2,3-10.9c0.6-2.9,1-5.9,1.8-8.7
		c1.6-5.8,4.3-9.2,9.5-12.2c1.5-2.7,2.6-5.3,4.6-7.7c3.5-4.1,8.7-6.6,14.1-6.6c1.7,0,3.4,0.6,5.2,0.7
		C533.7,373.1,536.1,372.4,538.2,372.2z"/>
	<path class="st7" d="M492.8,443.2c0.7,0.9,1.3,1.9,1.9,3c-0.7,1.1-1.3,2.2-1.8,3.3c-2.2,5.3-1.5,11.5,0.7,16.7
		c4.3,10.1,17.1,19.4,27,23.4c-5.3-5.7-10.5-11.8-14.7-18.4c2.8,2.3,5.9,4.2,8.9,6.1c11.3,7.1,16.2,10,23.8,21.5
		c-1.9-6.3-4.5-11.6-8.6-16.7c-3.7-4.7-7.7-9-10.4-14.4c2.5,1.6,4.7,3.7,7,5.5c3.7,2.8,7.5,5.3,10.9,8.5c-3.1-7.4-8.8-13.4-11-21.2
		c1.4-3.3,1.9-6.5,2.4-10c2.6,2.1,4.7,2.6,7.9,3.1c0.4,3.3,0.9,6.6,1.7,9.9c0.9,3.3,2.1,6.5,2.9,9.9c0.3-5.8,1.6-11.7,2.6-17.4
		c2.7-0.9,4.7-2.9,7.3-3.8c-1.2,12.9-3.1,20.7-7,33c3.4-5.2,5.5-10,7.4-15.9c0.7,2.3,1.3,4.5,1.8,6.9c2,3.7,3.5,7.8,4.3,11.9
		c1.5,7.6,1.2,19.2-1.1,26.6c-0.2,0.7-0.5,1.4-0.8,2.1c1.8,1.2,3.6,2.3,5.7,3.2c5.7,2.3,14.7,3.5,20.8,4.3c2.3,0.3,4.7,0.3,6.9,0.9
		c5.3,1.4,8.6,6.9,13.8,8.9c5.4,2.1,11.8,0.1,16.9,3.2c2.6,1.6,4.4,4.3,5,7.3c0.2,0.8,0.3,1.5,0.3,2.4c-0.1,1.3-0.4,2-1.4,2.8
		c-0.6,0.5-1,0.7-1.7,0.7c-1.3-1-0.6-3.2-1.1-4.6c-0.8-2.5-2.1-4.6-3.6-6.7l-2.2-1.1c1.1,1.1,2.1,2.1,2.6,3.7
		c0.3,0.6,0.5,1.3,0.6,1.9c0.2,1.6,0.6,4.7-0.5,6c-1.1,1.1-4,0.7-5.5,0.6c0-1.1,0-2.1-0.2-3.2c-0.5-2.9-2-6-4.5-7.6
		c-0.6-0.4-1.5-0.9-2.2-0.8l-0.1,0.5c0.6,0.6,1.3,1.1,1.9,1.7c0,0,0.1,0,0.1,0.1c1.8,1.8,2.5,5,2.3,7.5c0,0.8-0.1,1.1-0.7,1.6
		c-1.4,0.5-3.4,0.2-4.9,0.1c-9.8-0.9-10-7.4-16.2-12.7c-2.2-1.9-4.7-2.9-7.4-3.9c1.5-0.9,2.9-1.9,4.2-2.9c-9.7-4-21.6-1.4-30.4-8.1
		c-0.8,0.3-1.8,0.9-2.6,1c-0.4,0-0.4-0.2-0.7-0.4c-0.2-0.9,0-1.9,0.2-2.8c-1.6,1.1-3.1,2.2-4.8,3.1c3.2-7.5,5.6-15.9,4.2-24.1
		c-1.4,2.4-3.4,5-4.5,7.5c-0.1,0.4-0.1,0.8-0.3,1.2c-2,6.1-8.2,12.9-13.8,15.7c-2.2-8.3-2.8-12.9-6.8-20.9c-1.3-1.9-2.6-3.7-4.3-5.3
		c3.6,6.5,6,13.9,3.9,21.4c-0.5,1.7-1.4,4.2-2.9,5.1c-1.4,0.8-4.1,0.2-5.7,0.1c0.6,0.7,1.3,0.8,2.3,1c5.7,0.6,11.3,1.2,17,1.6
		c4.8,0.3,10,0.2,14.7,1.1c3.4,0.6,6.5,2.9,9.5,4.5c2.1,1.1,4.3,2,6.5,2.8c6.7,2.4,16.5-0.4,21.5,5.6c1.4,1.7,2.2,3.7,2.8,5.9
		c0.2,1.1,0.4,2.4,0.1,3.5c-0.2,0.8-0.6,1.8-1.3,2.2l-0.5-0.1c-1.4-1.6-1.5-5.1-2.1-7.2c-1-2.8-3.1-4.6-5.6-6
		c1.5,1.9,2.7,3.5,3.4,5.8c0.5,1.3,0.8,2.9,0.9,4.3c0.1,0.9-0.3,1.9-1,2.6c-1.6,1.5-4.8,1-6.8,0.9c0.5-2.6,0.5-5-0.7-7.5
		c-1.1-2.3-2.6-4.1-5.1-4.9c-0.7-0.2-1.3-0.3-1.9,0l0.2,0.3c0.8,0.3,1.4,0.7,2.1,1.2c0.2,0.2,0.5,0.4,0.7,0.7c1.4,1.7,2.6,6,2.1,8.2
		c-0.2,0.8-0.5,1.3-1.2,1.6c-2,1.1-7,0.2-9.1-0.5c-2.5-0.9-3.8-2.2-4.9-4.5c-2.1,0.2-4.2,0.4-6.2,0c-2.7-0.6-4.4-2.3-5.8-4.6
		c0.5-0.2,1.1-0.4,1.6-0.6l0.1-0.2c-2.9,0-8.5,1.7-11.7,2.3c-11.3,2.3-22.7,4.6-34.2,5.7c-3.1,0.3-6.3,0.6-9.4,0.4
		c-2.3-0.2-3.6-0.7-5.1-2.5c-5.5-6.8-3.2-20.3-2.4-28.5c0.9,6.4,0.9,14.6,3.1,20.5c0.8,2.1,1.8,3.7,3.9,4.7c8,3.6,39.8-2.1,48.4-5.3
		c-8.4,0.4-37.2,2.3-43.4-1.1c-1.3-0.7-2.1-2.1-2.7-3.4c-4.1-9.9,2.4-23.3,3.2-33.4c0.3-3.1-0.2-5.8-1.1-8.8c4.1,2,8.4,3.3,12.8,4.7
		c-7.4-5.6-15.7-9.7-20.9-17.7c-4.2-6.6-4.4-13.9-2.8-21.4c-4,5-8.6,9.7-11.8,15.3c-6.5,11.1-5.9,23.9-2.7,35.9
		c-1.8-2.2-3.3-4.7-4.4-7.4c-3.9-9.6-3-18.8,0.9-28.2l-4.7,2.1c-6.5,2.9-17.1,6.5-24.2,5.6c-1.3-0.2-2.4-0.6-3.6-1.1
		c3.7-0.7,7.4-1.7,11-2.8c13.3-3.8,27.1-9.3,36-20.4C487.4,452.7,490.2,447.8,492.8,443.2z"/>
	<path class="st7" d="M553.7,476.1c2,3.7,3.5,7.8,4.3,11.9c1.5,7.6,1.2,19.2-1.1,26.6c-0.2,0.7-0.5,1.4-0.8,2.1
		c1.8,1.2,3.6,2.3,5.7,3.2c5.7,2.3,14.7,3.5,20.8,4.3c2.3,0.3,4.7,0.3,6.9,0.9c5.3,1.4,8.6,6.9,13.8,8.9c5.4,2.1,11.8,0.1,16.9,3.2
		c2.6,1.6,4.4,4.3,5,7.3c0.2,0.8,0.3,1.5,0.3,2.4c-0.1,1.3-0.4,2-1.4,2.8c-0.6,0.5-1,0.7-1.7,0.7c-1.3-1-0.6-3.2-1.1-4.6
		c-0.8-2.5-2.1-4.6-3.6-6.7l-2.2-1.1c1.1,1.1,2.1,2.1,2.6,3.7c0.3,0.6,0.5,1.3,0.6,1.9c0.2,1.6,0.6,4.7-0.5,6
		c-1.1,1.1-4,0.7-5.5,0.6c0-1.1,0-2.1-0.2-3.2c-0.5-2.9-2-6-4.5-7.6c-0.6-0.4-1.5-0.9-2.2-0.8l-0.1,0.5c0.6,0.6,1.3,1.1,1.9,1.7
		c0,0,0.1,0,0.1,0.1c1.8,1.8,2.5,5,2.3,7.5c0,0.8-0.1,1.1-0.7,1.6c-1.4,0.5-3.4,0.2-4.9,0.1c-9.8-0.9-10-7.4-16.2-12.7
		c-2.2-1.9-4.7-2.9-7.4-3.9c1.5-0.9,2.9-1.9,4.2-2.9c-9.7-4-21.6-1.4-30.4-8.1c-0.8,0.3-1.8,0.9-2.6,1c-0.4,0-0.4-0.2-0.7-0.4
		c-0.2-0.9,0-1.9,0.2-2.8c-1.6,1.1-3.1,2.2-4.8,3.1c3.2-7.5,5.6-15.9,4.2-24.1c-1.4,2.4-3.4,5-4.5,7.5c-0.1,0.4-0.1,0.8-0.3,1.2
		c-2,6.1-8.2,12.9-13.8,15.7c-2.2-8.3-2.8-12.9-6.8-20.9c-1.3-1.9-2.6-3.7-4.3-5.3c3.6,6.5,6,13.9,3.9,21.4
		c-0.5,1.7-1.4,4.2-2.9,5.1c-1.4,0.8-4.1,0.2-5.7,0.1c-1.9-1.1-9.4-0.8-11.9-0.7c3.8-1,12.1-2.2,14.7-5.1c1.6-1.8,1.8-5.6,1.7-8
		c-0.6-12.8-8.6-17.5-17.1-25.2c3.5,1.2,6.7,3,9.9,4.9c4,2.3,7.8,4.7,11.7,7.2c4.7,3.2,9.4,6.7,14.5,9.2c0.3-0.2,0.5-0.4,0.8-0.6
		c6-4.9,10.6-15.7,12.3-23C553.3,480.5,553.4,478.4,553.7,476.1z"/>
	<path class="st7" d="M555.3,489.1c1.4,11.1,0.1,19-3.1,29.6l2.6-1.3c0.8,2.6,2.6,4.7,5,6c6.7,3.5,21.3,3.3,29,4.6
		c6,4.7,8,6.4,15.2,9.7c3.7-0.4,8.1-0.9,11.2,1.6c0.9,0.8,1.8,1.6,2.7,2.4l0.3-0.1c0.3,0.6,0.5,1.3,0.6,1.9c0.2,1.6,0.6,4.7-0.5,6
		c-1.1,1.1-4,0.7-5.5,0.6c0-1.1,0-2.1-0.2-3.2c-0.5-2.9-2-6-4.5-7.6c-0.6-0.4-1.5-0.9-2.2-0.8l-0.1,0.5c0.6,0.6,1.3,1.1,1.9,1.7
		c0,0,0.1,0,0.1,0.1c1.8,1.8,2.5,5,2.3,7.5c0,0.8-0.1,1.1-0.7,1.6c-1.4,0.5-3.4,0.2-4.9,0.1c-9.8-0.9-10-7.4-16.2-12.7
		c-2.2-1.9-4.7-2.9-7.4-3.9c1.5-0.9,2.9-1.9,4.2-2.9c-9.7-4-21.6-1.4-30.4-8.1c-0.8,0.3-1.8,0.9-2.6,1c-0.4,0-0.4-0.2-0.7-0.4
		c-0.2-0.9,0-1.9,0.2-2.8c-1.6,1.1-3.1,2.2-4.8,3.1c3.2-7.5,5.6-15.9,4.2-24.1C552.7,495.9,554.3,492.8,555.3,489.1z"/>
	<path class="st7" d="M607.4,540.9l-0.3,0.1c-1.5-0.3-3.1-0.5-4.5-1l0-0.2c1-0.2,1.9-0.4,2.9-0.6
		C606.2,539.7,606.8,540.3,607.4,540.9z"/>
	<path class="st7" d="M525.4,502.7c0.1,0.1,0.1,0.1,0.2,0.2c3.4,2.9,7.5,11.1,12.5,10.7c3.4-0.2,6.2-4.5,8.2-6.9
		c-0.1,0.4-0.1,0.8-0.3,1.2c-2,6.1-8.2,12.9-13.8,15.7C530,515.3,529.4,510.7,525.4,502.7z"/>
	<path class="st7" d="M617.6,539.1c3.9,1.7,5.4,4.6,7.8,7.8c-0.1,1.3-0.4,2-1.4,2.8c-0.6,0.5-1,0.7-1.7,0.7c-1.3-1-0.6-3.2-1.1-4.6
		C620.5,543.3,619.1,541.2,617.6,539.1z"/>
	<path class="st7" d="M584.6,544.7l-0.2,0.1c-0.4-0.3-0.3-0.1-0.6-0.5c-1.5-1.8-3.6-4-5.8-4.9c-3.9-1.6-8.2-0.5-12.2-1.7
		c-2.7-0.8-5.4-1.7-8-2.9c-3.3-1.5-7.3-4-10.9-4.6c-2.7-0.4-5.7-0.1-8.4-0.2c-4-0.2-30.7-1.3-33-3.1c0-0.1,0.1-0.1,0.1-0.2
		c2.1-2.2,10.1-2,13-2c5.7,0.6,11.3,1.2,17,1.6c4.8,0.3,10,0.2,14.7,1.1c3.4,0.6,6.5,2.9,9.5,4.5c2.1,1.1,4.3,2,6.5,2.8
		c6.7,2.4,16.5-0.4,21.5,5.6c1.4,1.7,2.2,3.7,2.8,5.9c0.2,1.1,0.4,2.4,0.1,3.5c-0.2,0.8-0.6,1.8-1.3,2.2l-0.5-0.1
		c-1.4-1.6-1.5-5.1-2.1-7.2c-1-2.8-3.1-4.6-5.6-6C582.6,540.8,583.9,542.3,584.6,544.7z"/>
	<path class="st7" d="M586.8,544.8c0.7-0.1,1-0.1,1.5,0.4c0.6,0.5,1.2,1.3,1.8,1.9l0.3,0l0.2-0.7c0.2,1.1,0.4,2.4,0.1,3.5
		c-0.2,0.8-0.6,1.8-1.3,2.2l-0.5-0.1C587.5,550.3,587.4,546.9,586.8,544.8z"/>
	<path class="st7" d="M570.2,540.3c0.8,0.3,1.4,0.7,2.1,1.2c-0.3,0.2-6.7,0.4-8,0.7C566.3,541.3,568.1,540.7,570.2,540.3z"/>
	<path class="st7" d="M516.7,379.2c4-3.1,8-4.5,13.1-3.9c1.5,0.2,2.9,0.5,4.3,0.9c4.2-1.7,8.8-1.2,12.9,0.6c2.5,1.1,6.8,4,7.9,6.5
		c0.4,0.9-1,0.9,0.6,1.7c2.3,1.1,4.2,1.6,6.1,3.4c0.8,0.5,1.1,1.3,1.3,2.2c0.4,1.4,0.8,3.9-0.1,5.3c-0.3,0.5-0.7,0.7-1.3,0.8
		c-1.5-1.1,0.3-2.4-0.2-3.7c-0.7-1.9-4-4.4-5.8-5.2c-0.1,0-0.1-0.1-0.2-0.1c1.2,2.9,1.2,6.2,2.3,9.1c5.4,3.7,11.1,7.3,15.5,12.1
		c-3.6-0.7-7.6-1.5-11.2-0.4c-0.1,0.1-0.1,0.1-0.2,0.2c-1.4,1.3-3.4,2.1-3.6,4.3c-0.1,1.4,0.5,2.8,1.4,3.8c0.8,0.9,1.9,1.6,3.1,1.7
		c0.9,0,1.7-0.3,2.3-1c0.3-0.3,0.6-0.6,0.8-1l0.2,0.1c0.1,0.7,0.1,1.1-0.2,1.8c-0.5,0.5-1,0.7-1.8,0.7c-1,0-3-0.6-3.8-0.2
		c0,1,1.3,2.1,2,2.8c1.5,1.5,2.9,1.9,4.1,3c0.3,0.3,0.4,0.5,0.4,0.9c-0.1,3.3-8.5,11.4-11.2,13.6c-2.1,1.8-4.7,2.9-7.5,2.6
		c-2.1-0.2-4-1.3-5.3-3c-1.8-2.3-1.7-5.2-3-7.6c0.3,3.4,0.4,7.7,3.2,10.1c1.8,1.7,4.2,1.9,6.5,2.3c-2.9,0.9-5.6,1.6-8.4,0.1
		c-4.5-2.4-6.6-9.8-7.8-14.4c-0.7-2.7-1.2-5.5-1.9-8.2c0.1,3.1,0.6,6.1,1.2,9.2c0.4,2,1,4.1,1.2,6.2c0.3,2.8-1.4,8.7,0.6,10.7
		c1.1,1.1,2.9,1.1,4.3,1c1.4-0.1,2.8-0.3,4.2-0.6c-1.8,1.7-4.5,2.9-7,2.8c-1.7-0.1-3.7-0.8-4.9-2.1c-1.3-1.5-1.7-3.8-1.5-5.7
		c0.3-2.6,1.4-5.1,1.2-7.8c-0.2-2.8-1.5-5.7-2.4-8.3c-2.4-7.1-1.6-14.6,0.8-21.6c1.4,0.9,2.7,2,4.5,1.6c1.4-0.2,2.5-1.3,3.5-2.2
		c-1.2,0.2-2.3,0.4-3.5,0.5c-3.1-1.8-5.8-4.7-6.7-8.2l-0.1-0.2c0.8-3.9,2.8-7.1,6.1-9.4c0.9-0.6,1.8-1.1,2.8-1.4
		c1-0.4,4.2-0.7,4.6-1.5c-3.3-0.5-7.5,1.5-10.1,3.5c-3.3,2.5-5.3,5.8-5.9,9.9c-0.2,1.3-0.2,2.5-0.2,3.8c-1.7-4.9-2.6-9.8-0.2-14.7
		c0.7-1.4,1.6-2.6,2.4-3.9c-4.3,3.4-7.3,8.8-7.9,14.3c-1.5,12.4,5.7,18.9,8.1,30c-7.2-9.2-12.8-20.1-11.3-32.2
		c0.2-2,0.7-3.9,1.2-5.9c-3.9,7.2-4.6,14.8-2.3,22.6c0.9,2.9,2,5.8,3.4,8.5c2.3,4.8,6.8,11.3,7.2,16.6c1.5,7.8,0.2,18.7-4.3,25.5
		c-1.6,2.4-4,4.4-6.9,4.9c-0.8,0.1-1.7,0.1-2.5,0.1c-0.8-0.3-1.6-0.7-2.3-1.1c-2.7-1.7-3.9-4.3-4.6-7.3c0.3,0.4,0.7,0.9,1.1,1.3
		c1.3,1.5,3.2,3.4,5.3,3.4c0.8,0,1.5-0.3,2-0.8c2-1.9,2.7-5.3,3.1-7.9c1.3-7.9,0.6-16.4-1.5-24.1c-1.7-6.3-4-12.6-5.1-19
		c-1.1-6.3-0.8-12-0.4-18.4c-1.6,1.6-2.7,3.3-3.5,5.5c-2.3,5.6-2.8,11.9-4.6,17.7c-1.8,5.8-4.7,11.4-6.2,17.3c0,0.1,0,0.1,0.1,0.2
		l0.1,0.4c1.8,5.6,6.2,10.1,8.3,15.6c-3.9-2.6-10-12.4-11.3-16.9c1.3-5,4-9.6,5.5-14.7c0.9-3,1.7-6.1,2.3-9.2
		c0.8-3.8,1.3-7.6,2.6-11.2c0.8-2.3,2-4.7,3.8-6.4c2.5-2.5,6.5-3.2,9.6-5.1c0.5-0.7,1.8-1.4,2.5-2.1c-2.2,1-4.5,1.9-6.8,2.8
		C512.4,384.1,514,381,516.7,379.2z"/>
	<path class="st7" d="M516.7,379.2c4-3.1,8-4.5,13.1-3.9c1.5,0.2,2.9,0.5,4.3,0.9c4.2-1.7,8.8-1.2,12.9,0.6c2.5,1.1,6.8,4,7.9,6.5
		c0.4,0.9-1,0.9,0.6,1.7c2.3,1.1,4.2,1.6,6.1,3.4c0.8,0.5,1.1,1.3,1.3,2.2c0.4,1.4,0.8,3.9-0.1,5.3c-0.3,0.5-0.7,0.7-1.3,0.8
		c-1.5-1.1,0.3-2.4-0.2-3.7c-0.7-1.9-4-4.4-5.8-5.2c-0.1,0-0.1-0.1-0.2-0.1c1.2,2.9,1.2,6.2,2.3,9.1c-2.3-1.1-4.5-3-7-3.7
		c0.3,0.7,0.7,1.5,0.6,2.2c-1.5-0.7-3.8-7.9-4.9-9.8c-0.8-1.5-1.8-2.7-3.1-3.9c-0.1-0.5-0.2-0.6-0.5-0.9c-0.4,0-0.2,0-0.6-0.1
		c-1.9-0.6-3.8-0.9-5.6-1.4c-4.6-1.3-9.1-3-13.9-2c-2,0.4-3.8,1.7-5.7,2.1C516.9,379.2,516.8,379.2,516.7,379.2z"/>
	<path class="st7" d="M516.7,379.2c4-3.1,8-4.5,13.1-3.9c1.5,0.2,2.9,0.5,4.3,0.9c4.2-1.7,8.8-1.2,12.9,0.6c2.5,1.1,6.8,4,7.9,6.5
		c0.4,0.9-1,0.9,0.6,1.7c2.3,1.1,4.2,1.6,6.1,3.4c-2.4,0-2.9-2.2-6.8-1.3c0,0,0-0.1-0.1-0.1c-0.8-1.7-1.7-2.8-3-4.2
		c-3.4-3.6-7.5-5.8-12.5-5.9c-0.6-0.1-1-0.3-1.5,0c1.7,1.3,3.7,2,5,3.8c-0.4,0-0.2,0-0.6-0.1c-1.9-0.6-3.8-0.9-5.6-1.4
		c-4.6-1.3-9.1-3-13.9-2c-2,0.4-3.8,1.7-5.7,2.1C516.9,379.2,516.8,379.2,516.7,379.2z"/>
	<path class="st6" d="M542.9,380.6c-1.4-1.7-3.3-2.5-5-3.8c0.5-0.2,1,0,1.5,0c4.9,2.4,8.1,6.1,9.9,11.2c0.5,1.6,0.9,3.4,1.6,4.9
		c0.3,0.7,0.7,1.5,0.6,2.2c-1.5-0.7-3.8-7.9-4.9-9.8c-0.8-1.5-1.8-2.7-3.1-3.9C543.3,381,543.2,381,542.9,380.6z"/>
	<path class="st7" d="M535.3,381.7c2.8-1,5.2-1.2,8.1-0.2c1.3,1.2,2.3,2.4,3.1,3.9c1,1.8,3.3,9,4.9,9.8c0.1-0.8-0.3-1.5-0.6-2.2
		c2.5,0.7,4.7,2.6,7,3.7c5.4,3.7,11.1,7.3,15.5,12.1c-3.6-0.7-7.6-1.5-11.2-0.4l0-0.2c0.4-0.7,1.4-1.1,2.1-1.5
		c-4.1-0.1-7.3,1.1-11,2.5c3.8-2.5,7.1-4,11.6-4.5c-3.8-2.5-8-3.8-12-5.8c-2.1-1.1-4.1-2.5-6.1-3.9c0-3.3-0.2-6.2-2.3-8.9
		C542,383.1,538.9,382.2,535.3,381.7z"/>
	<path class="st7" d="M524.8,436.5c1.5,7.8,0.2,18.7-4.3,25.5c-1.6,2.4-4,4.4-6.9,4.9c-0.8,0.1-1.7,0.1-2.5,0.1
		c1.4-1.4,3.3-2.2,4.6-3.7c4.7-5.2,7.5-13.8,8.4-20.6C524.4,440.8,524,438.1,524.8,436.5z"/>
	<path class="st7" d="M515.4,386.1c-0.2,0.9-0.7,1.5-1.5,2c-1.3,0.9-6.5,3-8,3.1C508.3,388.7,512.3,387.9,515.4,386.1z"/>
	<path class="st6" d="M540.4,388.7l0.3,0.4c0.1,4.8,2.6,7.8,4.7,11.8l0.1,0.3c-2.2,4.3-3.1,9.5-4.2,14.2c-0.2-2.8,0.1-5.7,0.1-8.6
		c0-2.7-0.1-5.5-0.6-8.2c-1.2,0.7-2.6,1.4-4,1.6c-3,0.6-3.9-1.2-6.2-2.5c-0.3-0.2-0.6-0.3-0.8-0.5c0-0.1,0-0.2,0-0.2
		C530.6,395,538.4,389.5,540.4,388.7z"/>
	<path class="st7" d="M536.8,393.7c0.8,0.2,1.5,0.4,2.2,0.7c0.4,0.6,0.4,0.6,0.3,1.2c-0.8,1.2-1.9,1.5-3.2,2c-0.3,0-0.6-0.1-0.9-0.1
		c-0.8-0.2-1.9-0.5-2.4-1.2l0.1-0.5C534.1,394.8,535.6,394.4,536.8,393.7z"/>
	<path class="st6" d="M513.7,419.1c1.8,1.8,7.3,15.5,8.1,18.6c-1.2-0.9-5.4-10.5-6.1-12.4C515,423.3,514.3,421.2,513.7,419.1z"/>
	<path class="st7" d="M420.8,481.7c4-1.4,8.8-2.1,12.8-0.1c2.4,1.2,3.9,3.2,4.7,5.7c2.5,7.7-0.7,18-4.3,24.9c-2.7,5-6,9.1-10.1,12.9
		c-4.6,5.3-14.9,9.7-20.8,14.5c5.2-2,10.4-3.7,16-4.2c6.1-0.9,14.9-1.9,20.2,2c1.4,1.1,2.4,2.4,3.1,4c0.1,0.2,0.2,0.3,0.3,0.6
		c0.6,1.4,0.8,3.4,0.1,4.8c-0.4,1-1.3,1.4-2.2,1.8c-0.6-0.1-0.7-0.5-0.7-1.1c-0.2-1-0.1-2.1-0.2-3.2c-0.3-2.7-1.9-4.7-3.8-6.5
		l-1.9-0.7c0.7,1.1,1.5,2.2,2.1,3.4c0.6,0.8,0.8,1.8,0.9,2.8c0.1,1.5,0,3.7-1.1,4.8c-1.1,1.2-3.3,1.1-4.8,1.2c0.3-1,0.6-2,0.6-3.1
		c0-2.5-0.9-4.9-2.7-6.7c-2.1-2.1-4.4-2.3-7.2-2.2c1.6,0.5,3.7,1,4.9,2.2c1.4,1.4,2.1,3.7,2.1,5.7c0,1-0.2,2.1-1.1,2.8
		c-1.8,1.6-9.3,0.3-11.9,0.1c2.9-2,5.8-3.8,8.8-5.5c-7.4,1.1-14.8,2.6-22.2,1.2c-1.2-0.2-3-0.7-3.6-1.9c-0.3-0.6-0.3-1.3-0.1-1.9
		c0.8-2.9,7.7-9.1,10.1-11.6c6.4-7,12.4-15,14.8-24.3c-3,5.2-9.3,15.9-14.8,18.1c-0.7,0.3-1.2,0.3-1.9,0c-0.5-0.5-0.7-1-0.8-1.7
		c-0.7-6.1,6.7-19.2,10.5-23.8c-4,2.7-8.2,5.3-12.8,6.8c-1.3,0.4-3.5,1.1-4.7,0.3c-0.3-0.2-0.5-0.5-0.6-0.9
		c-0.3-1.3,0.5-2.9,1.1-3.9c3.8-6.4,9.5-10.9,15.8-14.4C417,483.2,418.9,482.2,420.8,481.7z"/>
	<path class="st7" d="M420.8,481.7c4-1.4,8.8-2.1,12.8-0.1c2.4,1.2,3.9,3.2,4.7,5.7c2.5,7.7-0.7,18-4.3,24.9c-2.7,5-6,9.1-10.1,12.9
		c0.8-1.7,2.1-3.3,3.1-4.9c1.9-3,3.4-6.2,4.6-9.5c2.2-6.4,4.3-15.6,1.1-22c-0.9-1.8-2.4-3.2-4.4-3.9c-5.5-1.7-13,2.5-17.7,5
		C413.8,486.3,417.9,484.6,420.8,481.7z"/>
	<path class="st7" d="M419,535.4c6.1-0.9,14.9-1.9,20.2,2c1.4,1.1,2.4,2.4,3.1,4c0.1,0.2,0.2,0.3,0.3,0.6c0.6,1.4,0.8,3.4,0.1,4.8
		c-0.4,1-1.3,1.4-2.2,1.8c-0.6-0.1-0.7-0.5-0.7-1.1c-0.2-1-0.1-2.1-0.2-3.2c-0.3-2.7-1.9-4.7-3.8-6.5l-1.9-0.7
		c0.7,1.1,1.5,2.2,2.1,3.4l-0.3,0.2C429,533.8,421.7,537.1,419,535.4z"/>
	<path class="st7" d="M435.8,537.8c1.6,0.4,3.2,1.2,4.5,2.2c0.3,0.2,1.4,1.5,1.7,1.5c0.1,0,0.3-0.1,0.4-0.1c0.1,0.2,0.2,0.3,0.3,0.6
		c0.6,1.4,0.8,3.4,0.1,4.8c-0.4,1-1.3,1.4-2.2,1.8c-0.6-0.1-0.7-0.5-0.7-1.1c-0.2-1-0.1-2.1-0.2-3.2
		C439.2,541.6,437.6,539.6,435.8,537.8z"/>
	<path class="st7" d="M345.8,526.2c1.7,1.4,3,3.7,4.5,5.3c5.1,5.3,12.8,8.3,20.1,8.4c7.7,0.1,14.7-2.6,20.2-7.9
		c0.4,1.2,0.8,2.4,1.3,3.6c-3.6,3.2-7.6,5.4-12.2,6.7c-7.8,2.2-15.7,1-22.7-3C352,536.4,347.3,531.9,345.8,526.2z"/>
	<path class="st7" d="M441.2,523.2c1.1,0.6,2.3,1.9,3.2,2.8c2,1.8,4,3.6,6.2,5.2c6.2,4.5,13.5,7.8,20.8,10.1
		c2.6,0.8,5.2,1.4,7.7,2.2l0.2,0.1c-5.3,0.5-11.1-0.6-16.1-2.3C454,538,445.5,532.1,441.2,523.2z"/>
	<path class="st7" d="M574,417.3c0.4,8-0.6,16.7-4.1,24c0,0,0,0.1,0,0.1c-0.4,1.3-1.2,2.6-2.5,3.2c-1,0.5-1.9,0.7-3,0.3
		c-0.4-0.5-0.4-0.5-0.4-1.1c0.9-1,2.3-1.5,3.2-2.6c4.4-5.1,0.9-9.6,0.6-15.2c0-0.2,0-0.7,0.2-0.8c1.1-1.1,3-1.5,4.9-3.6
		C573.3,420.1,573.7,418.7,574,417.3z"/>
	<path class="st7" d="M574,417.3c0.4,8-0.6,16.7-4.1,24c-0.5-1.4,2-8.6,2.4-10.6c0.6-3,0.6-6.2,0.6-9.2
		C573.3,420.1,573.7,418.7,574,417.3z"/>
	<path class="st7" d="M564.4,409.1c2.5-0.2,7.9-0.2,9.9,1.6c0.5,0.5,0.6,0.9,0.7,1.6l-0.2,0.2c-1.1-0.4-2.1-0.8-3.2-1.1
		c-4.8-0.6-4.8,0.1-9.1,1.1c-0.6,0.1-0.7,0.3-1.3-0.1c-0.2-0.6-0.2-0.9-0.1-1.5C562.1,409.9,563.2,409.4,564.4,409.1z"/>
	<path class="st7" d="M563.2,448.4c0.1,0.1,0.2,0.1,0.2,0.2c1.4,1.6,1.9,7.5,1.5,9.6c-0.4,2.1-1.1,3.2-2.8,4.5l-1.3,0.2l-0.3-0.2
		C563.3,458.3,563.2,453.4,563.2,448.4z"/>
	<path class="st7" d="M558.7,392.6c0.8,0.2,1.4,0.4,1.9,1.1c0.3,0.8,0.1,1.3-0.1,2.1c-0.5-0.2-0.9-0.4-1.2-0.8
		C558.7,394.3,558.7,393.5,558.7,392.6z"/>
	<g class="st6">
		<g>
			<path d="M483.7,443.9c-0.5,0.1-0.2,0.1-0.8,0.1c-0.6-1.2-0.7-2.9-0.9-4.2c-4.7,0-9.4,0.1-14.2,0.2c-2.7-6.2-7.3-15.6-8.9-21.7
				c-1.1-1.2-1.8-2.2-3.4-2.5c-0.1,0-0.1,0-0.2,0c0.4-0.2,0.7-0.3,1.1-0.3c1.1,0,2,0.9,2.7,1.6l-0.3-3.1c-0.9-0.7-1.7-1.3-2.8-1.8
				c-9.3,0.8-18.5,1.5-27.7,2.8c-22.7,3.3-56.9,11.5-71.4,30.9c0.8-2.3,1.9-4,3.5-5.8c3-3.3,6.8-6,10.6-8.5
				c23.5-15.1,57.9-20.6,85.3-21.9c0.8,1.1,1.6,1.8,2.7,2.6c0-3.2,0-6.4-0.1-9.5c-0.8-0.5-1.5-1-2.3-1.6c-3.2,0.3-6.4,0.2-9.6,0.4
				c-4.4-8.4-7.9-17.7-11.5-26.5c-1.2-0.5-2.4-0.8-3.4-1.6c0-0.1,0-0.2,0-0.4c0.1-2-2.5-3.9-3.8-5.3c-20.7,4.2-41.2,10.2-57.7,23.9
				c-3.9,3.3-7.6,6.8-10.6,11c-2.4,3.4-4.6,7.3-5.2,11.5c-0.7,4.9,1.5,9.8,1.6,14.7c0,3.6,0.5,9.4-0.3,12.7
				c-0.6,2.5-2.3,4.6-2.5,7.3c-0.1,0.9-0.1,1.8,0,2.8c0.3,3.1,1.3,6.1,1.7,9.2c0.3,2.8-0.1,5.8,0.4,8.5l0.2,0.1
				c2.4-2.1,0.3-8,1.2-10.9l0.4-0.2c0.8,1,0.5,6.9,0.5,8.7c0.6-0.5,1.3-1.1,1.9-1.6c0.3-3.9,0-7.8,0.3-11.7
				c-0.1-1.7-0.4-4.3,0.8-5.6c0.1-0.1,0.1-0.1,0.2-0.2c0.5,0,0.4-0.1,0.7,0.3c0.9,1.1,0.7,3,0.7,4.3c-0.8,0.3-1.6,0.5-2.2,1.1l2-0.3
				c0.5,3.3,0.1,6.9,0.2,10.3l2.7-1.6c-0.1-3.7-0.2-7.4-0.2-11.1l0.5-0.5c-0.3-2.1-0.9-4.9,0.6-6.7c0.4-0.5,0.7-0.5,1.2-0.6
				c1.3,1.3,1,4.2,1.1,5.8l0.2,10.8l3.6-1.7c0-2.6-0.1-5.3,0-7.9c0-1.1,0.3-2.2,0.3-3.3c0-1.5-0.4-3-0.1-4.5
				c0.3-1.4,0.8-2.7,1.8-3.7c0.2-0.3,0.5-0.4,0.8-0.5c0.6,0.1,0.7,0.1,1.1,0.6c1.6,2.2,1.1,14.2,1.2,17.3l4.7-1.7
				c0-2-0.6-9.8,0-11.1c0.1-0.2,0.3-0.3,0.4-0.4c0.1-0.1,0.3-0.3,0.4-0.4c-0.3-0.6-0.6-0.2-0.8-0.6c-0.5-0.6,0.3-4.1,0.5-4.8
				c0.4-1.2,1.1-2.4,2.3-3c0.5-0.3,1.2-0.4,1.8-0.2c0.9,0.3,1.4,1.2,1.7,2c0.3,0.8,0.6,1.9,0.3,2.7l-0.7,0.7
				c0.4,0.3,0.6,0.3,0.6,0.8c0.5,3.9,0.2,8.3,0.2,12.2l5.4-1.5c0-2-0.4-11.3,0.2-12.3l0.9-0.1c-0.1-0.4-0.2-0.4-0.5-0.7
				c-0.6-0.6-0.8-1.3-0.8-2.1c0.1-1.8,1.1-3.9,2.4-5c0.8-0.7,2.1-1.5,3.2-1.3c0.9,0.2,1.6,0.9,1.9,1.6c1.6,3,1,14,1,18l6.2-1.1
				c0-4.2-0.5-8.6-0.1-12.8c0.5-0.3,0.6-0.2,1.2-0.3l0-0.4c-0.5-0.4-1.2-0.6-1.3-1.3c-0.3-2,0.9-4.7,2.3-6.1
				c1.2-1.1,2.7-1.7,4.3-1.6c1.3,0.1,2.4,0.8,3.1,1.8c0.8,1.1,1.1,2.4,1,3.7l-0.6,0.7c0.2,0.3,0.4,0.5,0.6,0.7
				c0.4,4.5,0.2,9.3,0.2,13.8c2.2-0.3,4.4-0.5,6.6-0.8c0-3.3-0.4-10.4,0.1-13.3c0.5-0.2,0.8-0.1,1.3-0.1l0.1-0.3
				c-0.5-0.4-1-0.8-1.5-1.1c0.3-2.5,0.8-5.1,2.8-6.7c1.3-1,3.4-1.9,5.1-1.6c1.3,0.2,2.3,1,3,2.1c2.3,3.5,1.4,15.4,1.6,20
				c2.2-0.1,4.4-0.3,6.6-0.5c-0.1-3.1-0.6-11.7,0-14.1l0.3-0.1l1,0.5l0.2-0.2c-0.1-0.6-0.1-0.7-0.7-1.1c-0.3-0.2-0.6-0.3-0.9-0.4
				c0.2-1.9,0.2-4.5,1.9-5.7c0.7-0.5,2-1,2.9-0.7c1,0.2,1.7,0.9,2.2,1.8c1.6,3,0.7,15.8,0.9,20.1c6.2,0,12.6-0.3,18.8,0.1l-0.4,0.1
				c-3.2,0.4-6.4,0.5-9.6,0.7c-4.2,0.2-8.4,0.5-12.6,0.9c-25.5,1.9-52.5,4.3-76.2,14.6c-5.7,2.5-13.8,6.8-17.7,11.9
				c-1.7,2.3-2.2,4.9-1.7,7.7c0.3,1.7,0.8,3.4,1,5.1c0.1,0.8,0.1,1.7,0.3,2.5c1,2.2,0.1,7.6,0.4,10.3l0.3,0.1c0.4-0.2,0.8-0.4,1-0.7
				c1-1.2,0.3-10.3,0.2-12.5c0-1.1,0-2.2,0.5-3.3l0.3-0.1c0.6,1.2,0.4,2.7,0.4,4c-0.5,1.9-0.1,7.4-0.1,9.7c0,0.6,0,0.9,0.4,1.3
				l1-0.3c0.1-0.1,0.3-0.2,0.4-0.4c0.5-1.1,0.1-11.3,0.1-13.4c0-1.3,0-2.5,0.8-3.6l0.5-0.2c0.6,0.4,0.9,0.7,1.1,1.4
				c0.3,0.9,0.2,2.1,0.2,3c0,4.1,0,8.1,0.1,12.2l2.6-0.7l-0.1-13.3c0-0.8-0.1-1.7,0-2.5c0.1-1.1,0.6-1.8,1.4-2.4
				c0.6-0.1,0.8-0.2,1.3,0.3c1.1,1,0.8,3.1,0.7,4.4c-0.4,4.1-0.2,8.4-0.2,12.6l3.7-0.6l0-15.7c0.2-1.2,0.4-2.7,1.5-3.5
				c0.5-0.4,1-0.6,1.6-0.5c0.8,0.1,1.4,0.8,1.8,1.5c0.5,1,0.4,2.6,0.3,3.7c-0.2,4.5,0,9.1,0,13.5l4.7-0.8l-0.2-13.6
				c0-1.2-0.1-2.6,0.3-3.8c0.5-1.3,1.5-2.5,2.7-3.1c0.7-0.3,1.4-0.3,2.1,0c1,0.5,1.5,1.6,1.7,2.7c0,5.5,0,11.1,0,16.6
				c1.7-0.2,3.4-0.4,5.2-0.5c0-1.6,0.5-14.2,0.1-15c-0.1-1.6,0.3-3.2,1.5-4.4c0.9-1,2.4-1.8,3.8-1.8c1,0,1.8,0.3,2.5,1
				c1.1,1.2,0.9,2.7,0.9,4.2c0.7-0.2,1.5-0.3,2.2-0.4c-0.7,0.1-1.5,0.3-2.2,0.4c-0.5,3.2,0,6.9,0.1,10.1c1.9-1.4,3.9-2.7,6-3.9
				c0-2.4,0-4.8,0-7.2c-0.1-1.8,0.2-3.1,1.4-4.4c1.1-1.2,2.7-2.1,4.4-2.1c1.3,0,2.5,0.4,3.4,1.4c2,2.1,1.7,4.7,1.6,7.3
				c2-0.6,5-1,6.8-2.1c0.4-0.2,0.1-4.2,1.7-5.9c1.3-1.4,3.1-2.2,5-2.3c1.6-0.1,3.2,0.4,4.4,1.5c1.7,1.8,1.5,4.2,1.5,6.5
				c2.4-0.9,4.7-1.6,7.2-2.3c0.1-0.9,0.2-1.8,0.5-2.7c0.7-1.8,2.2-3.2,3.9-4c1.5-0.6,3.3-0.7,4.8,0c1.6,0.8,2.5,2,3.2,3.7
				c6.9-3.3,13.9-7.5,19-13.2c-10.5-0.1-21,0.6-31.4,1.3c-22.5,1.5-67.9,6.1-86.4,18.9c-1.9,1.3-3.3,2.7-4.8,4.5
				c0.8-1.6,1.6-3,2.9-4.3c3.8-3.9,9.9-6.5,14.9-8.5c9.9-3.9,20.3-6.3,30.8-8.2c25.1-4.6,50.4-5.8,75.8-6c1.6-1.6,3.7-4.1,4.4-6.2
				C483.9,444.2,483.9,444.4,483.7,443.9z M363.1,425.3c-0.2,0.8-0.6,1-1.2,1.4c-0.1-1.5-0.1-3-0.1-4.5c0-1.6,0-2.9,1.3-4.1
				C363.6,420,363.5,423.5,363.1,425.3z M369.2,420.7l-1.6,1.3l-0.2,0c-0.7-1.3-0.4-5.1-0.2-6.7c0.1-1.5,0.3-1.9,1.5-2.8l0.1,0
				C369.5,413.3,369.2,419.3,369.2,420.7z M377.6,414.7l-2.3,1.4l-0.2-0.1c-0.8-1.2-0.4-6.6-0.4-8.2l2.2-1.2c0,0,0.1,0,0.1,0.1
				C377.8,407.5,377.6,413.4,377.6,414.7z M388,409.9l-3.2,1.5l-0.3-0.1c-0.8-1.3-0.3-7.2-0.3-8.9c1.1-0.5,2.1-0.9,3.2-1.4
				c0,0,0,0,0,0C388.2,402,388,408.4,388,409.9z M400.5,405.1l-4.2,1.4c-0.6-2.9-0.3-6.6-0.3-9.6c1.4-0.4,2.8-0.8,4.2-1.3
				C400.8,396.8,400.5,403.4,400.5,405.1z M415.9,401.1c-1.6,0.3-3.1,0.7-4.7,1.1l-0.3,0c-0.7-1.2-0.3-7.8-0.3-9.7l4.6-1l0.3,0
				C416.3,392.6,415.9,399.3,415.9,401.1z M361.3,409.7c14.2-20.6,42.2-29.8,65.5-34.4c0.4,0.2,0.6,0.4,0.9,0.7
				c-0.2,0.5-0.4,0.5-0.9,0.7c-1.7,0.6-3.6,0.7-5.3,1.1c-2.5,0.5-4.9,1.1-7.3,1.8c-20.6,5.8-40.4,14.8-53.8,32l-0.2,0.2
				C360,411.4,360.9,410.2,361.3,409.7z M391,475.2c-0.3,0-0.6,0.1-0.9,0.1C390.4,475.2,390.7,475.2,391,475.2z"/>
			<path d="M458.9,418.3C458.9,418.3,458.9,418.3,458.9,418.3C458.9,418.3,458.9,418.3,458.9,418.3L458.9,418.3z"/>
			<path d="M354.9,505.3c0.1,2.9,0.3,5.8,0.3,8.6c0,2.5-0.2,5.1,0,7.6c0,0.3,0.1,0.5,0.3,0.8c0.5,0.2,0.6,0.3,1.2,0.2
				c0.8-2.5-0.8-12.8,0.8-13.8l0.4,0.2c0.4,2.5-0.3,13.3,0.5,14.3c0.6,0.1,0.7,0.1,1.3-0.2c1.9-3.3-1.1-13.1,1.8-15.3
				c0.4,0,0.5-0.1,0.7,0.2c2.1,2.4-0.5,14.3,1.1,16c0.8,0,1.5,0.2,2.1-0.3c0.4-3.4-1.1-14,1.2-15.9c0.3-0.3,0.5-0.3,0.9-0.3
				c0.8,0.5,1.1,1,1.3,1.8c0.7,3,0.2,11.6,0.1,15c1.2,0.1,2.3,0.2,3.5,0.2c0-3.1-0.9-15.3,1.4-17.2c0.5-0.4,1-0.6,1.6-0.5
				c0.7,0.1,1.3,0.6,1.7,1.1c1.2,2.2,0.6,13.6,0.6,16.8l4.7,0c0.1-3.6-0.3-12.1,0.3-15.2c0.2-1,0.6-1.9,1.3-2.6
				c0.7-0.7,1.6-1.1,2.6-1.1c0.6,0,1.2,0.1,1.9,0.3c0.8-2.2,1.7-4.3,2.6-6.5c-0.8,0-1.6,0-2.4,0.1
				C380.7,500.4,361.5,502.1,354.9,505.3z"/>
			<path d="M393.8,492.1c-6.8,0.6-35.3,4.2-39.3,8.9c-0.6,0.7-0.6,1.5-0.5,2.4c0,0.3,0.1,0.5,0.2,0.8l0.3,0.2l0.6-0.2
				c10.2-4.3,25.2-4.8,36.3-6.5c1.1-1.7,2.5-3.5,3.4-5.3l-0.2-0.3L393.8,492.1z"/>
		</g>
	</g>
	<g class="st6">
		<path d="M565.5,472.4c0.8-0.8,1.8-1.4,3-1.4c1.3,0,2.5,0.6,3.4,1.6c1.7,1.8,1.8,3.9,1.7,6.2l0,0l0,0l0,0l0,0
			c0,4.5,0.1,9.1,0.2,13.6c1.7,0.1,3.3,0.2,5,0.4c-0.1-5.2-0.1-10.3,0-15.5c0,0.2-0.1,0.4-0.1,0.7c0.1-0.2,0.1-0.5,0.1-0.7
			c0.2-1.3,0.4-2.6,1.4-3.5c0.7-0.6,1.6-0.8,2.5-0.7c1.2,0.2,2.3,0.9,3,1.9c0.8,1.1,1.2,2.7,1.1,4c0,0,0,0,0,0
			c0.3,4.8,0,9.7,0.1,14.5l4.4,0.4c0-4.2-0.1-8.4,0.1-12.5l0,0c0-1.9-0.2-4.1,1.2-5.6c0.4-0.4,1-0.7,1.6-0.8c1,0,1.9,0.6,2.5,1.4
			c1.6,1.9,1.5,4.2,1.5,6.5c0,4,0,7.9,0,11.9c1.2,0.1,2.4,0.2,3.6,0.4c0.1-3.9,0-7.9,0.2-11.8c0.1-1.9-0.1-4.7,1.4-6
			c0.4-0.3,0.6-0.3,1-0.4c0.9,0.2,1.4,0.6,1.9,1.4c1.3,2,1.1,4.4,1.1,6.6l0,11.1l3.3,0.6c0-3.7,0-7.4,0-11.1c0-1.8-0.3-4.6,1.1-6
			c0.3-0.3,0.5-0.3,0.9-0.4c0.9,0.3,1.3,0.8,1.7,1.6c0.9,1.9,0.7,4.4,0.7,6.4c-0.3,2.4-0.9,8.8,0.7,10.6c0.1,0.2,0.2,0.2,0.4,0.3
			c0.5-0.1,0.5-0.1,0.8-0.6c1-1.7,0.5-7.7,0.4-9.8c0-1.5-0.3-4.8,1-5.9c0.1-0.1,0.1-0.1,0.2-0.1c0.6,0.2,0.8,0.3,1.1,0.9
			c0.9,1.8,0.7,4.3,0.8,6.3c0,1.5-0.3,9.4,0.2,10.1c0.6,0.1,1.2,0.3,1.8,0.1c0.5-4.1,0.1-10.4,0.1-14.7c0,0,0,0,0,0l0.2-0.8l0.3-0.2
			c0.6,0.5,0.7,1.5,0.9,2.2c0.1,1,0.1,2,0.1,3c-0.1,2.4-0.3,7.6-0.1,9.8c0.1,0.7,0.3,1.3,0.8,1.8l0.3,0c0.9-2.7-0.5-6.6,0.4-9.4
			c0.7-4.1,0.8-18.2,0.1-22.2c-0.2-1.3-0.6-2.4-1.3-3.5c-6.6-10.4-37.9-16.9-49.7-19.4c-1.2,1.3-2.4,2.6-4,3.5
			c0.4,1.8,0.7,3.5,0.8,5.3c0.2,3.7-0.4,7.7-3,10.5c-2.6,2.8-6,3.5-9.6,3.5c1.7,4.2,3.1,8.5,5,12.7c0-0.2,0-0.4-0.1-0.6
			C563.6,478.4,563.6,474.5,565.5,472.4z M624.4,490.8c-0.2-0.2-0.2-0.4-0.3-0.7C624.2,490.3,624.3,490.6,624.4,490.8z M622.3,489.9
			c-0.3-0.1-0.6-0.3-0.9-0.4C621.7,489.6,622,489.7,622.3,489.9z M609.8,461.7c0.7,0.1,1.2,0.2,1.7,0.7c1,2,0.5,5.4,0.5,7.6
			c-0.7-0.2-1.3-0.3-1.8-0.7C609.1,467.2,609.8,463.9,609.8,461.7z M593.9,457.5l4.5,1.1c0,3.8,0,7.5,0,11.3
			c-1.4-0.4-2.9-0.5-4.3-0.8C593.7,465.3,593.9,461.3,593.9,457.5z M588.9,481c-0.2,0-0.3-0.1-0.4-0.1
			C588.6,480.9,588.7,480.9,588.9,481z M590.4,481.2c-0.2,0-0.4-0.1-0.6-0.1C590,481.1,590.2,481.2,590.4,481.2z M587.8,480.6
			c0.1,0.1,0.2,0.1,0.4,0.1C588.1,480.7,588,480.7,587.8,480.6z M587.6,480.5L587.6,480.5c-0.3-0.2-0.4-0.3-0.5-0.5
			C587.1,480.2,587.3,480.4,587.6,480.5z M584.7,454l0,7.8c-1.8-0.1-3.5-0.5-5.2-0.8l0-7.9C581.2,453.3,582.9,453.7,584.7,454z
			 M575.3,478.9c0.4,0,0.9,0.1,1.3,0.1C576.2,479,575.8,479,575.3,478.9z M578.3,478.7c0.1,0,0.1-0.1,0.2-0.2c0-0.1,0.1-0.2,0.1-0.3
			c0,0.1-0.1,0.2-0.1,0.3C578.4,478.6,578.4,478.7,578.3,478.7c-0.2,0.1-0.5,0.2-0.7,0.3c-0.2,0-0.4,0.1-0.6,0.1
			c0.2,0,0.4,0,0.6-0.1C577.8,478.9,578.1,478.8,578.3,478.7z M574.8,478.9c-0.1,0-0.2,0-0.3,0C574.5,478.9,574.6,478.9,574.8,478.9
			z"/>
		<path d="M626.1,504.4c-0.1-0.6-0.6-1-1.1-1.3c-6.8-4.2-49-8.3-59-8.3c-0.1,4.5-0.3,9-1,13.4c1-1.3,1.9-2.4,3.6-2.7
			c1.1-0.2,2.6,0.1,3.5,0.8c1.1,0.8,1.5,2.2,1.7,3.5c0.2,1.9,0,4.1-0.1,6c1.8,0.3,3.6,0.5,5.4,0.8c-0.1-2.7-0.8-7.9,1.3-9.9
			c0.6-0.6,1.5-0.9,2.4-0.9c1,0,1.9,0.3,2.6,1.1c2.2,2.3,1.4,8.2,1.4,11.3l4.5,0.5c0-3-0.8-9.1,1.3-11.4c0.5-0.5,1-0.7,1.7-0.8
			c1-0.1,2.2,0.5,2.8,1.2c1.9,2.1,1,12,1.2,15.3l3.4,1.5c0-3.4-0.8-14.3,1.5-16.5c0.4-0.4,0.9-0.6,1.5-0.6c0.7,0,1.2,0.3,1.7,0.8
			c1.8,2,1.1,13.2,1.2,16.4l3.6,0c-0.2-4.9-0.7-10.5,0.1-15.4c0.5-0.5,0.8-0.8,1.6-1c0.6,0.2,0.9,0.3,1.3,0.9c1.4,2.2,0.8,12,0.8,15
			c0.8,0,2,0.1,2.6-0.3c1.1-3.8-1.2-11.4,0.8-14.7c0.5-0.3,0.5-0.3,1.1-0.1c2.2,3-0.4,13.3,1.7,14.7c0.6-0.2,0.8-0.3,1.1-0.9
			c1.1-2.2-0.6-9.3,0.7-12.7l0.5-0.1l-0.2-0.3l0,0c1.8,2.8,0,10.7,1.1,13l0.7-0.1c0.6-1,0.3-3.3,0.3-4.6c-0.1-2.4-0.1-4.9,0.1-7.3
			C625.7,509,626.4,506.4,626.1,504.4z"/>
	</g>
	<g class="st6">
		<path d="M483.9,378.9c1.7,0,3-1.4,3-3c0-1.7-1.4-3-3-3c-1.5,0-2.7,1.1-3,2.5h-51.2v1.3h51.3C481.3,377.9,482.4,378.9,483.9,378.9z
			"/>
		<path d="M476,389.2c1.7,0,3-1.4,3-3c0-1.7-1.4-3-3-3c-1.4,0-2.5,0.9-2.9,2.2h-51.3v1.3H473C473.2,388.1,474.4,389.2,476,389.2z"/>
		<path d="M490.3,392.2c-1.3,0-2.5,0.9-2.9,2.1H437v1.3h50.2c0.2,1.5,1.4,2.7,3,2.7c1.7,0,3-1.4,3-3S491.9,392.2,490.3,392.2z"/>
		<path d="M486,401.9c-1.3,0-2.5,0.9-2.9,2.1h-51.3v1.3H483c0.2,1.5,1.4,2.7,3,2.7c1.7,0,3-1.4,3-3S487.7,401.9,486,401.9z"/>
	</g>
	<g class="st6">
		<g>
			<path d="M144.7,637.1v-58h10.1V627h39v10.1H144.7z"/>
			<path d="M253,579.2h9.9v32.4c0,17.9-8.9,26.4-31.3,26.4c-22.3,0-31.3-8.5-31.3-26.4v-32.4h10.4v32.4c0,11.6,5.2,16.4,21.1,16.4
				s21.1-4.8,21.1-16.4V579.2z"/>
			<path d="M272,637.1v-58h33.6c16.4,0,28.2,11.6,28.2,28.4s-11.9,29.6-28.2,29.6H272z M305.6,627c10.4,0,18.1-8.1,18.1-19
				s-7.7-18.7-18.1-18.7h-23.5V627H305.6z"/>
			<path d="M394,579.2h9.9v32.4c0,17.9-8.9,26.4-31.3,26.4c-22.3,0-31.3-8.5-31.3-26.4v-32.4h10.4v32.4c0,11.6,5.2,16.4,21.1,16.4
				s21.1-4.8,21.1-16.4V579.2z"/>
			<path d="M413.1,637.1V627h43.5c5.4,0,8.5-3,8.5-7.6c0-4.9-3-7.5-8.5-7.5h-26.6c-10.9,0-17.7-6.9-17.7-16.5
				c0-9.3,6.3-16.3,17.9-16.3h41.6v10.1h-41.6c-4.6,0-7.3,2.7-7.3,7.1c0,4.4,2.8,7,7.3,7h26.6c11.7,0,18,5.5,18,16.8
				c0,9.7-5.9,17-18,17H413.1z"/>
			<path d="M483.3,637.4v-58.2h10.1v58.2H483.3z M529.9,637.4v-25.2h-29.2v-9h29.2v-24h10.1v58.2H529.9z"/>
			<path d="M576.6,637.1c-16.2,0-28.2-12.8-28.2-29.6c0-17.1,12-28.4,28.2-28.4h14.1c16.8,0,28.4,11.6,28.4,28.4
				s-11.9,29.6-28.4,29.6H576.6z M590.7,627c10.7,0,18.3-8.1,18.3-19s-7.6-18.7-18.3-18.7h-14.1c-10.4,0-18,7.7-18,18.7
				c0,10.9,7.6,19,18,19H590.7z"/>
			<path d="M679.2,579.2h9.9v32.4c0,17.9-8.9,26.4-31.3,26.4c-22.3,0-31.3-8.5-31.3-26.4v-32.4h10.4v32.4c0,11.6,5.2,16.4,21.1,16.4
				c16,0,21.1-4.8,21.1-16.4V579.2z"/>
			<path d="M707.7,594.7v42.4H698v-52.6c0-3.7,2-6.1,5.2-6.1c1.5,0,2.8,0.6,4.3,2.1l40.9,40.6v-42.4h9.7v53.1c0,3.8-2.1,6.1-5,6.1
				c-1.7,0-3.2-0.7-4.6-2.2L707.7,594.7z"/>
			<path d="M767.9,637.1v-58h33.6c16.4,0,28.2,11.6,28.2,28.4s-11.9,29.6-28.2,29.6H767.9z M801.5,627c10.4,0,18.1-8.1,18.1-19
				s-7.7-18.7-18.1-18.7H778V627H801.5z"/>
		</g>
	</g>
</g>
</svg>
